<svg id="Layer_1" data-name="Layer 1" xmlns="http://www.w3.org/2000/svg" viewBox="0 0 652 624"><defs><style>.cls-1{fill:#fcb117;}</style></defs><title>Artboard 32 copy5</title><path class="cls-1" d="M463.88,249.58c-1,21.65-7.24,40.86-15,59.48-26.47,63.25-62.34,121.29-100,178.28-7.37,11.15-20.49,11.29-27.74.2-38.87-59.45-76.71-119.5-103-185.93-6.61-16.74-12.35-34-11.91-52.12.71-29.19,10-55.73,28.67-78.53,25.33-30.94,58.43-47.67,98.06-48,71.15-.64,122.81,52.45,129.56,113.69C463,241.32,463.5,246,463.88,249.58ZM334.76,143.89a103.21,103.21,0,0,0-21.53,1.84A107.34,107.34,0,0,0,227.4,255.48c.72,16.48,6.6,31.65,12.82,46.58,24.16,58,57.1,111.12,91,163.74,3.14,4.87,4.95,4.2,7.68-.21,9.17-14.83,18.76-29.4,27.83-44.29,23.62-38.74,46.07-78.11,63.38-120.18,8.7-21.16,15.3-42.79,11.69-66.1C433.57,182.29,388.64,144.08,334.76,143.89Z"/><path class="cls-1" d="M269.94,251.29c-.12-35,28.6-64.52,63-64.69,37.83-.19,67,28,67.42,65.16.35,35-29.8,65.23-65.29,65.51C299.29,317.56,270.08,288,269.94,251.29Zm109.45.14c.14-24.73-19.59-44.41-44.6-44.48a44.24,44.24,0,0,0-44.48,43.92C290.22,276,309.66,296,334.24,296,360,296.06,379.24,277,379.39,251.43Z"/></svg>