<svg id="Layer_1" data-name="Layer 1" xmlns="http://www.w3.org/2000/svg" viewBox="0 0 652 624"><defs><style>.cls-1{fill:#fcb117;stroke:#fcb117;stroke-miterlimit:10;stroke-width:2px;}</style></defs><title>Artboard 325</title><path class="cls-1" d="M340.71,111.57c7.13,0,14.26,0,21.39,0,12.85.1,20,7.28,20.08,20,0,4.57.09,9.15,0,13.72-.09,3.59,1.28,5.77,4.88,6.8a152.49,152.49,0,0,1,32.73,13.55c3.34,1.87,5.71,1.24,8.18-1.36,3.42-3.62,7-7.1,10.55-10.57,8-7.79,18.34-7.92,26.25-.14q16.39,16.13,32.54,32.52c7.8,7.91,7.76,18.34.07,26.27-3.56,3.67-7.15,7.31-10.85,10.83-2.51,2.39-3,4.72-1.25,7.87A157.77,157.77,0,0,1,499,264.16c.9,3.2,2.84,4.67,6.15,4.63,5-.07,10,0,14.93,0,11.37.06,19,7,19.24,18.32q.47,23.2,0,46.42c-.25,11.15-7.9,18.09-19,18.16-5.11,0-10.22.05-15.33,0-3.11,0-5.05,1.33-5.91,4.38a165.19,165.19,0,0,1-14,33.84c-1.46,2.69-1.06,4.81,1,6.88,3.84,3.77,7.66,7.56,11.4,11.43,7.52,7.77,7.6,18.24,0,26Q481.19,450.74,464.64,467c-7.74,7.61-18.13,7.5-26-.07-3.87-3.73-7.66-7.56-11.44-11.39-2.07-2.1-4.2-2.48-6.87-1a164.45,164.45,0,0,1-33.85,14c-3.07.89-4.35,2.87-4.34,5.95q0,7.67,0,15.34c-.08,11.05-7.07,18.69-18.22,18.93q-23.19.49-46.41,0c-11.31-.23-18.22-7.88-18.27-19.28,0-4.84-.07-9.69,0-14.53.06-3.41-1.24-5.55-4.67-6.53a156.05,156.05,0,0,1-33.11-13.71c-3.19-1.78-5.49-1.16-7.85,1.31-3.43,3.59-7,7.08-10.55,10.56-8.15,8-18.49,8.1-26.54.16q-16.24-16-32.26-32.25c-8-8.08-8-18.47-.08-26.55,3.57-3.66,7.17-7.3,10.85-10.84,2.37-2.28,2.85-4.53,1.21-7.53a160.33,160.33,0,0,1-13.87-33.48c-.92-3.26-3-4.5-6.28-4.45-5,.08-10,0-14.93,0-11.11-.06-18.77-7-19-18.11q-.54-23.4,0-46.81c.28-11.13,8-17.92,19.15-18,5,0,10-.06,14.93,0,3.29,0,5.28-1.36,6.19-4.57a160.9,160.9,0,0,1,13.88-33.48c1.54-2.83,1.16-5-1.09-7.21q-5.64-5.47-11.12-11.13c-7.71-7.93-7.79-18.38,0-26.26q16.16-16.39,32.54-32.54c7.9-7.78,18.27-7.69,26.25.07q5.64,5.49,11.14,11.12c2.19,2.24,4.38,2.61,7.21,1.05A160.86,160.86,0,0,1,294.75,152c3.23-.93,4.57-3,4.53-6.22,0-5,0-10,0-14.93.06-11.47,7.25-18.81,18.82-19.24h22.61ZM523.25,310.06q0-10.1,0-20.18c0-.27,0-.54,0-.81.24-3.21-1.1-4.69-4.46-4.58-4.84.16-9.69.09-14.53,0-9.78-.16-17.31-5.67-20.11-15.06a174.59,174.59,0,0,0-13.24-32c-4.65-8.76-3.33-17.25,3.6-24.43,3.55-3.67,7.18-7.28,10.83-10.86,1.83-1.79,2.35-3.46.32-5.49q-15.73-15.66-31.4-31.39c-2-2-3.6-1.62-5.43.29-3.43,3.6-7,7.09-10.55,10.57-7.49,7.32-15.88,8.65-25.06,3.77a169,169,0,0,0-31.64-13.08c-9.58-2.83-15-10.37-15.12-20.47-.05-4.85-.09-9.69,0-14.53.06-2.93-1.23-4.13-4.11-4.12q-21.58.06-43.18,0c-3.19,0-4.23,1.5-4.17,4.49.12,5,.11,9.95,0,14.93-.21,9.37-5.68,16.91-14.68,19.57a174.33,174.33,0,0,0-32.38,13.38c-8.75,4.65-17.25,3.31-24.42-3.62-3.68-3.55-7.33-7.14-10.84-10.85-2-2.16-3.67-2.16-5.73-.08Q211.58,181,196.11,196.34c-2.06,2-2.12,3.77,0,5.8,3.58,3.46,7.08,7,10.55,10.56,7.33,7.51,8.64,15.87,3.76,25.07a172.32,172.32,0,0,0-13.08,31.64c-2.79,9.4-10.31,14.94-20.07,15.1-5,.07-10,.09-14.93,0-2.94-.06-4.12,1.25-4.11,4.12q.06,21.58,0,43.18c0,3.2,1.5,4.23,4.49,4.16,4.84-.12,9.69-.08,14.53,0,9.77.15,17.31,5.69,20.1,15.07a173.24,173.24,0,0,0,13.25,32c4.64,8.77,3.32,17.23-3.62,24.42-3.55,3.68-7.18,7.28-10.83,10.86-1.84,1.8-2.33,3.48-.3,5.5q15.74,15.66,31.4,31.38c1.77,1.78,3.32,1.86,5.13,0,3.54-3.68,7.19-7.28,10.84-10.85,7.49-7.32,15.88-8.64,25.07-3.75a168.89,168.89,0,0,0,31.63,13.07c9.44,2.78,15,10.29,15.11,20.08.07,5,.1,9.95,0,14.93-.05,2.94,1.26,4.12,4.12,4.11q21.6-.06,43.19,0c3.2,0,4.22-1.52,4.15-4.5-.11-4.84-.08-9.69,0-14.53.14-9.79,5.65-17.31,15.07-20.09a168.89,168.89,0,0,0,31.63-13.07c9.22-4.9,17.59-3.6,25.08,3.71,3.56,3.48,7.13,6.95,10.54,10.58,2,2.15,3.67,2.16,5.74.08q15.35-15.46,30.82-30.82c2.06-2,2.14-3.76,0-5.8-3.58-3.46-7.08-7-10.55-10.56-7.34-7.51-8.64-15.86-3.76-25.07a172,172,0,0,0,13.07-31.64c2.79-9.4,10.31-14.94,20.07-15.1,4.84-.08,9.69-.14,14.53,0,3.31.1,4.59-1.27,4.54-4.53C523.16,324.32,523.24,317.19,523.25,310.06Z"/><path class="cls-1" d="M419.65,310.27c-.11,43.4-35.72,79-79,78.87-43.4-.1-79-35.71-78.88-78.94.1-43.4,35.71-79,79-78.88C384.17,231.42,419.75,267,419.65,310.27Zm-16,0a62.93,62.93,0,1,0-63.07,62.89A62.48,62.48,0,0,0,403.66,310.27Z"/></svg>