<svg id="Layer_1" data-name="Layer 1" xmlns="http://www.w3.org/2000/svg" viewBox="0 0 1344 1332"><defs><style>.cls-1{fill:#333232;}.cls-2{fill:#fcb117;}</style></defs><title>Artboard 7 copy 76</title><rect class="cls-1" x="87" y="75" width="1164" height="1164" rx="130" ry="130"/><path class="cls-2" d="M624.75,757.88V692.3c0-4.15,0-4.21-4-4.6a355.53,355.53,0,0,1-59.88-10.8c-26.89-7.4-52.56-17.61-75.79-33.35-28.07-19-48.17-44.31-59.28-76.44a189.82,189.82,0,0,1-9.89-50,132.44,132.44,0,0,1,8.54-57.5c6.24-16,15.29-30.42,26.19-43.64,18.53-22.45,39.94-41.64,64.94-56.71a211.31,211.31,0,0,1,81.61-28.92c7.25-1,14.52-1.79,21.76-2.79,4.79-.66,4.91-.9,5.16-5.86,1.19-23.77.45-47.56.65-71.34.06-7.67-.55-6.66,6.65-6.62q46.5.28,93,.67c3.79,0,3.9.15,3.94,3.89.2,19.26.36,38.51.63,57.77a96.87,96.87,0,0,0,.85,9.76c.56,4.9,3.49,7.39,8.24,8.28,4.56.84,9.17,1,13.75,1.65a200.7,200.7,0,0,1,77.06,26.39,206.32,206.32,0,0,1,58.93,52.91,231.91,231.91,0,0,1,30.32,52.33c6.5,15.76,12.29,31.79,15,48.76.09.57.18,1.14.22,1.71.29,4.32-.6,5.36-4.94,5.36q-51.86,0-103.72-.1c-2.31,0-4.63-.11-6.93,0-2.47.13-3.37-.94-3.54-3.35-.64-8.92-2.39-17.51-7.08-25.34-6-10-14.5-17.4-24.45-23.2-15.9-9.25-33.3-13.32-51.46-14.76-1.79-.14-2.25.53-2.17,2.07,0,.58,0,1.16,0,1.74V578.86c0,4.35.12,4.32,4.52,4.73,20.67,1.93,41.46,2.85,61.82,7.58,42.64,9.9,80.53,28.47,110.64,60.89,23.66,25.47,37.87,55.43,40.84,90.38a145.8,145.8,0,0,1-3.56,45.28c-3.69,16-8.9,31.46-17.54,45.61a237.67,237.67,0,0,1-36.93,46.07c-20.87,20.45-45.41,35.2-72,46.78A271.63,271.63,0,0,1,763,943.37a185.58,185.58,0,0,1-30.05,3.73c-3.38.13-3.93,1.54-3.93,4.37,0,16.18,0,32.36-.26,48.54-.21,11.55-.38,23.1-.32,34.65,0,3-1.18,3.78-3.95,3.78-17.81,0-35.64-.13-53.45.23-14,.29-28.11.2-42.16.37-3.87,0-4.08-.18-4.08-4.07q0-39.87,0-79.74c0-4.77-.11-4.84-4.76-5.08-26-1.34-51.44-5.81-75.7-15.68-20.13-8.19-38.35-19.61-55.23-33.24-14.81-12-28.31-25.22-39.54-40.65a185.77,185.77,0,0,1-27.26-55.15,264.66,264.66,0,0,1-8.72-39.73,80.76,80.76,0,0,1-.39-8.65c-.09-2.28.92-3,3.11-3,8.57.09,17.15-.16,25.71.19,8.28.35,16.56.24,24.83.33,18.68.2,37.36.41,56,.48,2.48,0,3.59.92,4.31,3.19,3.57,11.36,8.37,22.1,15.56,31.73,11.08,14.83,25.14,25.66,42.58,31.9a106.74,106.74,0,0,0,35.1,6.15c4.35,0,4.36,0,4.36-4.26ZM729,766.66v57.49c0,3.85,0,3.76,3.84,3.88a143.32,143.32,0,0,0,55.26-8.74c12.92-4.83,24.61-11.42,33.09-22.72a27.62,27.62,0,0,0,5.19-11.77c1.38-7.53,1-15.15,1.16-22.75A42,42,0,0,0,818.81,736c-10.73-14.54-25.8-22.21-42.91-26.26-14-3.32-28.45-3.38-42.76-4.08-4.14-.21-4.14-.14-4.14,4.11ZM624.75,502.92c0-19.26,0-38.51,0-57.77,0-2.77-.85-3.68-3.64-3.59-5.59.17-11.14.61-16.69,1.2-14.22,1.52-27.85,5-40.15,12.56-12.75,7.88-22.13,18.21-24.17,33.74-.57,4.29-.9,8.61-1.26,12.92a30.94,30.94,0,0,0,2.42,15.54c6.35,14.14,16.54,25,29.66,33,15.26,9.24,32.16,13,49.89,13.43,3.8.08,3.89,0,3.89-3.8Q624.77,531.52,624.75,502.92Z"/></svg>