<svg id="Layer_1" data-name="Layer 1" xmlns="http://www.w3.org/2000/svg" viewBox="0 0 1344 1332"><defs><style>.cls-1{fill:#333232;}.cls-2,.cls-3{fill:#fcb117;}.cls-3{font-size:452.49px;font-family:MotivaSans-Bold, Motiva Sans;font-weight:700;}.cls-4{letter-spacing:-0.03em;}.cls-5{letter-spacing:0em;}</style></defs><title>Artboard 7 copy 176</title><rect class="cls-1" x="104" y="111" width="1164" height="1164" rx="130" ry="130"/><path class="cls-2" d="M938.11,690.66a4,4,0,0,1,2-3.28,4.88,4.88,0,0,1,.59-.83,61.26,61.26,0,0,1,9.5-8.27c1-1.71,2.09-3.41,3.28-5a26.3,26.3,0,0,1,5.47-5.66,13.9,13.9,0,0,1,1.38-1.6A410.29,410.29,0,0,0,1009,607.45c16.56-24.32,30.86-49.76,34.43-79.63,2.59-21.73-2.88-41-20.2-55.56-18.52-15.6-41-19.85-64.24-21.81-5.49-.46-11-.79-16.67-.88a81.59,81.59,0,0,1-16.61.06,8.26,8.26,0,0,1-3.13.83C885.2,452.91,848.93,461,813.2,471.72c-4.33,1.3-6,.4-7.05-4a564.09,564.09,0,0,0-15.79-55.41c-2.82-8.29-2.84-8.32-9.59-3.15s-14.25,9.14-22.56,10.82c-5.37,1.09-5.86,3-4.08,7.72,6.46,17.05,11.24,34.62,15.57,52.32.87,3.56.74,5.85-3.4,7.32-27.56,9.78-54.33,21.51-80.84,33.81-2.7,1.26-5.17,1.68-8,.34-26.62-12.56-53.64-24.16-81.32-34.18-3.57-1.3-4.56-3.34-3.6-6.86,2.12-7.72,4-15.49,6.18-23.2,8.17-29.43,18.42-58.05,35.32-83.75,11.1-16.88,24-31.78,46.18-33.81a4.9,4.9,0,0,0,4.45-3.39c6.64-16.41,18.12-28.09,34.48-34.86,3.9-1.62,3.35-3.15.46-5.23-8.37-6.06-17.4-10.67-27.61-12.65-21.77-4.23-39.69,4-55.64,17.76-17.86,15.45-30.53,34.85-41.19,55.64-17.26,33.68-28.79,69.44-38,106-2.71,10.81-.8,10.72-12.9,7.26-31-8.87-62.35-16.25-94.62-18.81-.88-.07-1.72-.18-2.55-.32a109.86,109.86,0,0,1-11.27-1.44c-2.41,1-4.36.33-6.3.26-23-.91-45.62.9-67.35,9-16.89,6.3-30.59,16.54-38.34,33.4-7,15.27-6.71,31.09-3,47,6.41,27.2,20.3,50.76,36.15,73.32,7.15,10.16,14.9,19.85,23,29.26a13,13,0,0,1,1.22,1.65c.37.46.72.9,1,1.17,1.48,1.68,3,3.33,4.49,5,3.15,3.51,6.27,7,9.2,10.74,1.34,1.7,2.7,3.52,4,5.38q2.46,2.29,4.83,4.67c.08.08.15.17.23.26a8.91,8.91,0,0,1,1.59.69c9.16,5.09,15.17,17.81,13.12,27.75-.35,1.72-4.38,6-8.15,9.24a9.77,9.77,0,0,1-2.26,4.42,23.13,23.13,0,0,1-.47,3.77,9.68,9.68,0,0,1,.93,1.63,9,9,0,0,1,2.6,3.2c.7.29,1.34.76,2.05,1.13,6.68,3.55,11.72,9,16.56,14.63,2.32,2.69,4,2.59,6.31.17,3.16-3.35,6.41-6.62,9.78-9.75,4.24-3.94,16.5-4.29,21-.77,20.28,16,40.67,31.83,62,46.34,3.67,2.48,5.19,5.5,5.56,9.91,1.19,14.14,2.58,28.27,4.38,42.35a26.25,26.25,0,0,1,0,7.56,59.66,59.66,0,0,1,1.18,7.62,3.69,3.69,0,0,1,.88,2.13c1.47,9,2.9,18.09,4.36,27.13.33,2,0,3.58-2.23,4.23A480.94,480.94,0,0,1,495,886.51a2.17,2.17,0,0,0,.07-.24,2.77,2.77,0,0,1-.3,0,11,11,0,0,1-2-.19,21.49,21.49,0,0,1-3,.68,7.71,7.71,0,0,1-.86.14l-.31.05a12.76,12.76,0,0,1-4.87,1.87c-18.23,2.81-36.51,4.57-55,3.63-11.24-.57-22.27-2.33-32.65-7-12.11-5.42-21.1-13.63-24.18-27.11-1.12-4.94-.91-10-.64-14.94.22-3.88-1.13-5.74-5-6.72a59.2,59.2,0,0,1-30.81-18.68c-3.14-3.6-4.56-2.44-6.11,1.33-4.18,10.2-7.84,20.54-9.72,31.45-6.06,35,8.52,61.47,41.71,74.35,23.56,9.14,48.27,10.52,73.23,9.25,1.34-.07,2.7-.61,4.16-.39a9.27,9.27,0,0,1,1.49-.13h7.41a22,22,0,0,1,5.14-1.1c31.76-3.17,62.74-10.18,93.32-19.15,8.55-2.51,8.55-2.46,10.78,6.57,7.66,31.14,17,61.74,30.38,91,12.24,26.69,26.48,52,48.89,71.91,27.42,24.32,59.2,25.19,87.57,1.94,22.25-18.22,36.34-42.4,48.45-67.8,15.14-31.73,25.7-65.1,33.54-99.32,1.26-5.51,3.2-6.52,8.54-4.91,31.46,9.51,63.4,16.82,96.21,19.84,2,.19,4,.41,5.85.78a8.56,8.56,0,0,1,4,.26l2.13.66a10.29,10.29,0,0,1,7.64.22c5.47,0,10.55,0,15.59,0,4.2,0,5.49-1.21,3.13-5.32a56.56,56.56,0,0,1-8-31c.23-5.23-1.75-6.35-6.59-6.12a249.07,249.07,0,0,1-38.32-1.1,72.31,72.31,0,0,1-12.12-2,8.8,8.8,0,0,1-6.38-1.2c-.27-.18-.56-.34-.84-.52a7.73,7.73,0,0,1-1.07-.19,9.67,9.67,0,0,1-2.24-.45c.05.09.11.18.16.28-6.19.09-11.4-1.83-16.73-2.91-12.13-2.46-24-5.95-35.89-9.33-4-1.15-5.39-3.24-4.62-7.45,1.68-9.21,3-18.5,4.43-27.75.1-.63.08-1.34.24-1.95a11.28,11.28,0,0,1,.28-4.59,11,11,0,0,1,1-5,2.62,2.62,0,0,1,0-.28c1.92-15.47,3.82-31,4.71-46.52.2-3.44,2-5.85,4.85-7.81a851.13,851.13,0,0,0,68.39-51.79c4-3.38,6.47-2.81,10,.65,14,13.74,27.79,27.69,40.21,42.89,16.67,20.38,31.88,41.68,39,67.58,1,3.65,2.95,4,6.16,3.73a65.43,65.43,0,0,1,40.4,8.55c1.49.87,3,3.07,4.68,1.88,2-1.39.36-3.76-.1-5.56-6.45-25.23-19.32-47.35-34.11-68.36-18.7-26.58-40.56-50.48-64-73-2.47-2.37-7.51-4.63-6.16-7.9A2.78,2.78,0,0,1,938.11,690.66ZM531.79,691a5,5,0,0,1-.62,3.18c0,2.51-.12,5-.33,7.64-.28,3.57.56,8.09-.42,11.55-1.85,6.55-7,4.65-11.24,2.08a4.53,4.53,0,0,1-3.22-1.31c-.1-.1-.18-.21-.28-.32a10,10,0,0,1-2.47-1.2c-2.15-1.47-3.88-3.43-6.13-4.74-1.77-1-3.47-1.92-4.61-3.45a20.3,20.3,0,0,1-5.05-3.36c-1.53-1.28-3.08-2.52-4.65-3.76-6-4.7-5.95-5.63.24-10.51,3.13-2.47,6.37-4.81,9.36-7.43a9.44,9.44,0,0,1,1.84-1.24,4.56,4.56,0,0,1,1.34-1.6,10.54,10.54,0,0,1,4.38-2c2.06-1.06,4-2.28,6-3.41,2.92-1.65,5.45-3.79,8.74-4.7a4.84,4.84,0,0,1,5.82,3.31c2.21,6,.93,12.37,1,18.57A5.41,5.41,0,0,1,531.79,691Zm14.4-174.77c-1.59,9.65-3.15,19.32-4.6,29-.23,1.55-.64,2.41-1.22,2.72a46.85,46.85,0,0,1-1,6.66,27.36,27.36,0,0,1,0,10.13c-1.91,12.62-2.71,25.42-3.81,38.16a8.72,8.72,0,0,1-3.86,7c-21.32,14.89-42.23,30.33-62.36,46.81a7.47,7.47,0,0,1-2.21,1.23c-2.83,2.15-5.68,4.53-9.29,4.8-5.06.38-7.9-3.45-10.95-6.76a12.67,12.67,0,0,1-2.52-1.94c-22.87-22.54-44.18-46.36-59.84-74.63-6.79-12.28-12.22-25.14-13.23-39.49-1.76-25,12.4-37.27,30.93-43.3,17.23-5.61,35-5.7,52.88-4.44,6,.42,11.9,1.49,17.88,1.84a24.32,24.32,0,0,1,8.35,1.9c.39,0,.78.05,1.18.11a38.6,38.6,0,0,0,4.92.44c.39,0,.77.06,1.14.1l-.06-.09c4.35.89,7.74,1.54,11.11,2.27q21.1,4.55,41.81,10.69C545.09,510.57,546.84,512.28,546.19,516.24Zm184.09,27c14-6.47,28.3-12,42.62-17.56,4.18-1.63,6-1,6.66,3.9,2.19,15.4,4.77,30.74,6.11,46.25.1,1.12,0,2.27,0,4.44-20-11.71-39.16-23.44-58.9-33.75C727.06,544,729,543.88,730.28,543.27ZM583,528.41c.52-3.53,2.36-4.2,5.48-3,15.82,6,31.63,12.12,48.25,20.14-20.52,12-40.56,22.7-60.46,35.31C577.64,562.57,580.46,545.5,583,528.41Zm.24,327.93c-3-16.88-5.23-33.88-7-52.46,12.84,7.52,24.47,14.4,36.19,21.16,6.74,3.89,13.59,7.62,20.44,11.31,3.17,1.71,3.49,3.15-.06,4.6-14.79,6-29.6,12-44.38,18.13C585.43,860.32,583.75,859.27,583.22,856.34ZM769.9,903.63c-8.63,35.08-19,69.52-37.42,100.92-7.86,13.39-17.21,25.55-30.63,34-6.27,4-13.19,5.61-20.35,6.39-11.56-.67-21.29-5.35-29.74-12.94-14.62-13.11-24.17-29.76-32.34-47.23-11.91-25.47-19.83-52.33-26.55-79.57-1.11-4.49-.49-6.74,4.27-8.47a835.12,835.12,0,0,0,79.59-33.59,9.62,9.62,0,0,1,9.11.15c26,12.37,52.47,23.8,79.62,33.52C768.74,898,771,899.16,769.9,903.63Zm11.29-59.53c-.49,3.76-1.37,7.48-1.76,11.25s-1.85,4.95-5.52,3.6c-15-5.5-29.79-11.65-44.49-18-2.85-1.23-3.49-2.61-.39-4.38q27.88-15.86,55.76-31.7c.12-.07.37.09,1,.28C785.28,818.2,782.9,831.11,781.19,844.1Zm9.15-92.82c-.23,3.24-1.93,5-4.38,6.63-28.48,18.66-57.88,35.74-88,51.57a9.06,9.06,0,0,0-1.63.77c-10.53,8.88-20.32,6.13-31.43-.09-29.7-16.61-59.31-33.3-87.94-51.71-3.38-2.18-5-4.5-5.11-8.62-.34-13-1.63-26-.9-39.87.1-11.37.56-22.71.78-34.09-.1-1.63-.16-3.26-.18-4.9a12.16,12.16,0,0,1-.82-4.26v-.59a11.76,11.76,0,0,1,.49-3.21c0-5.35,0-10.7,0-16,0-1.19.58-2.44.38-3.57-2-11.32,4.26-17,13.26-22.55,30-18.38,60.51-36,91.74-52.32a8.71,8.71,0,0,1,9,0q51.79,26.7,100.76,58.29c2.08,1.34,3.81,2.79,3.92,5.6.33,8.59.84,17.18,1.14,25.77a10.72,10.72,0,0,1-.08,2.55,46.44,46.44,0,0,1,.2,7.53c0,1.93-.08,4.07-.2,6.26a14.29,14.29,0,0,1,.16,1.87C791.74,701.28,792.12,726.29,790.34,751.28Zm73.59-49.47c-1.79,1.47-3.75,4.1-5.65,4.83A34.25,34.25,0,0,1,853,710a13.6,13.6,0,0,1-3.5,2.59c-1.36,2.49-3.5,4.54-5.89,5l-1.12,1.23a4.36,4.36,0,0,1-1.32,1.81,20.83,20.83,0,0,1-2.92,2.11,4.23,4.23,0,0,1-2.72.57,5.86,5.86,0,0,1-.51.63c-1,1-2,2.23-3.57,1.7-1.39-.49-1.11-2-1.11-3.14q0-26.36.16-52.73a.71.71,0,0,1,.14-.37c-.08-.64-.16-1.28-.21-1.93,0-.16-.07-.32-.11-.47a4.64,4.64,0,0,1,.05-2.8c0-.73,0-1.46.12-2.19a2.27,2.27,0,0,1,.8-1.47c-.34-.53-.44-1.3.15-2.63q2.72,1.83,5.36,3.69a5.1,5.1,0,0,1,1.78,1.29,119.11,119.11,0,0,1,11.22,9l0,0a2.9,2.9,0,0,1,.36.25c1.22,1,2.35,2,3.37,3.06a11.65,11.65,0,0,1,3.43,2.5,3.37,3.37,0,0,1,.72-.15c2,1.56,4.14,3,6.11,4.7C875.59,692.19,875.61,692.24,863.93,701.81Zm44.67-38.49c-2.54,2.48-4.35,2.71-7,.38-5.13-4.45-11.34-8-15.53-13.12-5.68-7-13.83-10.11-20.53-15.4-7.06-5.57-14-11.66-21.81-15.84-12.85-6.83-18.7-16.55-18.23-31.08.25-7.71-1.27-15.5-2.33-23.22a16.92,16.92,0,0,1,.05-5.33,17.41,17.41,0,0,0-.86-6.84l-.21.13c-1.69-10.58-3.32-20.71-4.93-30.83-1.81-11.35-1.79-11.33,9.34-14.37,14.68-4,29.37-8,44.34-10.66a15.3,15.3,0,0,1,8.06-2.21,8.86,8.86,0,0,1,3.58.7l.49-.19A47.71,47.71,0,0,1,893.82,493a6.66,6.66,0,0,1,2.64.23c20.06-2,40.07-3.16,59.85,2.34,13.5,3.74,25.36,9.83,31.62,23.48,4.48,9.75,4.3,19.78,2,29.91-4.2,18.47-13.5,34.47-24.13,49.89C949.34,622.66,929.23,643.21,908.6,663.32Z"/><path class="cls-2" d="M743.19,321.85c20.74.08,37.77,16.94,37.6,37.23-.19,21.43-16.88,37.82-38.42,37.72a37.85,37.85,0,0,1-37.31-37.61C705.12,338.31,722,321.77,743.19,321.85Z"/><path class="cls-2" d="M344.49,775.79c.06-21.09,16.23-37.17,37.29-37.1,21.53.07,37.66,16.15,37.64,37.53s-16.31,37.5-37.74,37.41S344.42,797.35,344.49,775.79Z"/><path class="cls-2" d="M1003.29,861.32c20.94-.05,38.22,17,38.1,37.62s-17.15,37.53-38.09,37.85c-20.35.32-37.66-17.19-37.63-38.06C965.7,878.34,982.76,861.37,1003.29,861.32Z"/><circle class="cls-2" cx="676.28" cy="696.5" r="74.08"/><rect class="cls-1" x="92" y="111" width="1164" height="1164" rx="130" ry="130"/><text class="cls-3" transform="translate(195.7 881.54)">S<tspan class="cls-4" x="270.13" y="0">M</tspan><tspan class="cls-5" x="652.93" y="0">A</tspan></text></svg>