<svg id="Layer_1" data-name="Layer 1" xmlns="http://www.w3.org/2000/svg" viewBox="0 0 1344 1332"><defs><style>.cls-1{fill:#333232;}.cls-2{fill:#dc0000;}.cls-3{fill:#fecd00;}</style></defs><title>Artboard 76</title><rect class="cls-1" x="97" y="87" width="1164" height="1164" rx="130" ry="130"/><path d="M1020.77,542.75q-344.28,0-688.53,0c.25-.77.51-1.55.8-2.32C377.62,412,492.22,316.25,631.16,299h90.7C860.79,316.26,975.38,412,1020,540.39,1020.25,541.17,1020.52,542,1020.77,542.75Z"/><path class="cls-2" d="M1040,659.67a362.58,362.58,0,0,1-21,122.11c-.27.79-.55,1.57-.84,2.36q-341.64,0-683.27,0c-.29-.77-.57-1.55-.83-2.32a365.07,365.07,0,0,1-1.79-239.07c.25-.77.51-1.55.8-2.32H1020c.29.78.56,1.56.81,2.36A362.44,362.44,0,0,1,1040,659.67Z"/><path class="cls-3" d="M1019,781.78c-.27.79-.55,1.57-.84,2.36-50.82,139.46-184.59,239-341.63,239S385.66,923.58,334.86,784.1c-.29-.77-.57-1.55-.83-2.32Z"/></svg>