<svg id="Layer_1" data-name="Layer 1" xmlns="http://www.w3.org/2000/svg" viewBox="0 0 572.07 583.85"><defs><style>.cls-1{fill:#f2af21;}</style></defs><title>Artboard 61</title><path class="cls-1" d="M67,217.12c3-16.43,9.84-30.85,21.4-43.05,12.58-13.27,27.74-22.63,44.38-29.79,23.82-10.27,48.91-15.64,74.47-19.23,33.59-4.72,67.38-5.07,101.15-3.88,34.95,1.23,69.59,5.45,103,16.57,23.33,7.76,45.12,18.38,62.1,36.89,13.47,14.68,20.9,31.8,21.31,52,.4,19.85-5.12,37.58-17.07,53.34-8.91,11.74-19,14.08-32.27,7.52-10-4.93-18.84-11.83-28.3-17.66-5.92-3.65-11.75-7.45-17.67-11.1-11-6.77-14-14.72-10.17-26.87,1.81-5.69,3.74-11.35,5.64-17A15,15,0,0,0,392.2,200a39.17,39.17,0,0,0-20.08-13.53c-19.74-5.59-39.86-8.65-60.31-10.2a421.87,421.87,0,0,0-56.66-.48c-22.65,1.32-45.07,4.48-66.89,11-7.87,2.36-14,7.2-19.12,13.51-3.74,4.64-4.37,9.73-2.43,15.3s3.88,11.32,5.64,17c3.29,10.65,1.58,18.08-7.69,24.08-16,10.34-31.65,21.24-48.23,30.65a28.43,28.43,0,0,1-9.45,3.2c-7.12,1.17-13.55-.14-18.79-5.54C77,273.42,70.88,259.31,67.7,243.75c-.22-1.09-.45-2.17-.68-3.25Z"/><path class="cls-1" d="M280.28,468.68q-75.94,0-151.89,0c-21.6,0-34.86-13.38-34.9-35,0-23.37.28-46.74-.13-70.1-.23-13.17,5-23.34,14.36-32,11-10.19,24.28-17.13,36.94-24.91,12.22-7.53,24.28-15.22,34.26-25.72,12.55-13.2,19.82-28.67,20.73-47,.49-9.92,2.17-19.38,10.41-26.31a29.93,29.93,0,0,1,13.38-6.42c2.75-.58,4.25.24,4.16,3.35-.11,3.89,0,7.79,0,11.68,0,8.34,3.1,11.46,11.29,11.38,17.38-.17,34.76.13,52.14-.25,11.51-.26,23,.54,34.55-.29,5.47-.4,8-2.92,8.23-8.48.22-4.45.07-8.91.12-13.36.06-4.25.79-4.78,5.05-3.85A28.52,28.52,0,0,1,361.15,227c.78,10.11,1.63,20.19,5.53,29.78,6.31,15.48,17.28,27,30.39,36.85,14.61,10.95,31.09,19,46.05,29.38,8.75,6.07,16.8,12.85,21.53,22.76A32.85,32.85,0,0,1,468,360.28c0,24.76.08,49.52,0,74.28-.07,20.3-13.85,34.09-34.19,34.12q-76.77.1-153.56,0Zm0-200.33c-5.27.72-11,.86-16.57,2-36.22,7.65-65.18,42.32-62.29,82.86,1.43,20.08,9,37.24,23.1,51.27,25.65,25.55,63.41,30.41,95.34,13,3-1.65,3.56-3.2,2-6.2-4.45-8.34-8.66-16.8-13-25.2-1.67-3.25-2.85-6.63.08-9.65s6.32-2,9.62-.35c8.88,4.3,17.82,8.49,26.65,12.88,2.44,1.22,3.54.72,4.86-1.61a77.16,77.16,0,0,0,9.6-50.23C354,298,321.73,269,280.24,268.35Z"/><path class="cls-1" d="M280.58,375.18a27,27,0,0,1-.13-54,27.15,27.15,0,0,1,27.39,25.68C308.56,363.64,294.09,376.13,280.58,375.18Z"/><path class="cls-1" d="M297.56,301.7c-6.29,0-10.43-4.18-10.38-10.42A10,10,0,0,1,297.37,281c6.1,0,10.35,4.31,10.35,10.53C307.72,297.54,303.54,301.72,297.56,301.7Z"/><path class="cls-1" d="M301.05,404.89c0,6.24-4.19,10.36-10.46,10.35A9.85,9.85,0,0,1,280.46,405a10.3,10.3,0,1,1,20.59-.08Z"/><path class="cls-1" d="M253.78,291.55c0-6.05,4-10.28,10-10.39,6.29-.12,10.49,3.93,10.57,10.18.09,6.06-4,10.33-9.92,10.39C258.07,301.79,253.83,297.72,253.78,291.55Z"/><path class="cls-1" d="M237,301.18c6.38-.06,10.55,3.93,10.6,10.15.06,6.05-4,10.28-9.95,10.39-6.3.12-10.49-3.91-10.59-10.18C227,305.46,231,301.24,237,301.18Z"/><path class="cls-1" d="M324.29,321.73c-6.1,0-10.3-4-10.4-9.94-.11-6.32,3.95-10.57,10.15-10.61s10.28,3.94,10.39,9.93C334.54,317.45,330.51,321.67,324.29,321.73Z"/><path class="cls-1" d="M230.69,368A9.8,9.8,0,0,1,241,378.15c0,6-4.2,10.31-10.12,10.4s-10.4-4.12-10.45-10C220.33,372.24,224.46,368,230.69,368Z"/><path class="cls-1" d="M267.65,398.47c0,6-4.16,10.11-10.2,10.1-6.32,0-10.4-4.13-10.34-10.41,0-6,4.23-10.1,10.24-10.14C263.56,388,267.65,392.12,267.65,398.47Z"/><path class="cls-1" d="M234.24,344.66c.07,6.21-4.19,10.47-10.44,10.45a9.78,9.78,0,0,1-10.09-9.92c-.13-6.36,3.94-10.59,10.2-10.6C230,334.58,234.19,338.66,234.24,344.66Z"/><path class="cls-1" d="M327.25,338.19c0-6.2,4.25-10.31,10.57-10.28,5.9,0,10.06,4.35,10,10.39a10.29,10.29,0,0,1-20.57-.11Z"/></svg>