<svg id="Layer_1" data-name="Layer 1" xmlns="http://www.w3.org/2000/svg" viewBox="0 0 1344 1332"><defs><style>.cls-1{fill:#333232;}.cls-2{fill:#fcb117;}</style></defs><title>Artboard 7 copy 146</title><rect class="cls-1" x="106" y="107" width="1164" height="1164" rx="130" ry="130"/><path class="cls-2" d="M323.49,479.28v-58c0-3.73,0-3.74,3.81-3.74h91.62c3.76,0,3.77,0,3.77-3.76v-46c0-15.4.05-30.82-.05-46.22,0-2.49.69-3.34,3.23-3.33q29.69.12,59.35,0c2.7,0,3.38.93,3.36,3.49q-.09,45.83,0,91.63c0,4.15,0,4.15,4.23,4.15H584.4c3.67,0,3.69,0,3.69,3.79v58c0,4.08,0,4.08-4,4.08H492.49c-3.93,0-3.95,0-3.95,3.92v91.89c0,3.73,0,3.73-3.77,3.73H426.23c-3.53,0-3.54,0-3.54-3.66V488.21c0-4.81,0-4.81-4.68-4.81H327.75C323.49,483.4,323.49,483.4,323.49,479.28Z"/><path class="cls-2" d="M572.22,985.18c-.55.66-.91,1.18-1.35,1.62q-21.66,21.66-43.28,43.35c-1.77,1.8-2.45.32-3.41-.64l-64.6-64.58c-3.94-3.95-3.94-3.95-7.95.08q-31.92,31.9-63.83,63.81c-2.56,2.56-2.56,2.56-5.07.07-13.92-13.92-27.81-27.89-41.8-41.74-1.59-1.57-1.68-2.44,0-4.08q33-32.79,65.79-65.72c2.65-2.65,2.65-2.66,0-5.27q-32.78-32.77-65.6-65.52c-1.79-1.78-1.79-2.71,0-4.47q21.08-20.87,42-42c1.71-1.73,2.64-1.68,4.33,0q32.81,33,65.72,65.79c2.47,2.48,2.48,2.48,5-.07l65.37-65.37c2.48-2.48,2.49-2.48,5,.07l41.19,41.2c2.54,2.53,2.54,2.55.08,5l-65.17,65.17c-2.76,2.77-2.76,2.77-.07,5.46q32.77,32.8,65.55,65.56C570.85,983.66,571.49,984.4,572.22,985.18Z"/><path class="cls-2" d="M1052.18,479.86c0,2.67-.63,3.61-3.49,3.61q-128.84-.12-257.66,0c-2.81,0-3.53-.83-3.52-3.58.11-19.59,0-39.2.07-58.8,0-3.53,0-3.54,3.68-3.54H1048.1c4,0,4,0,4,4C1052.12,441,1052.07,460.43,1052.18,479.86Z"/><path class="cls-2" d="M1052.12,819.4v57.72c0,4.07,0,4.09-4,4.09H791.56c-4,0-4,0-4-4.09q0-28.86,0-57.72c0-3.67,0-3.69,3.57-3.69h257.36C1052.11,815.71,1052.12,815.73,1052.12,819.4Z"/><path class="cls-2" d="M1052.12,952.14v58.26c0,3.65,0,3.66-3.58,3.66H791.15c-3.57,0-3.57,0-3.57-3.64q0-29.28,0-58.54c0-3.66,0-3.67,3.82-3.67h256.85C1052.11,948.21,1052.12,948.22,1052.12,952.14Z"/><rect class="cls-1" x="106" y="95" width="1164" height="1164" rx="130" ry="130"/><path class="cls-2" d="M323.49,467.28v-58c0-3.73,0-3.74,3.81-3.74h91.62c3.76,0,3.77,0,3.77-3.76v-46c0-15.4.05-30.82-.05-46.22,0-2.49.69-3.34,3.23-3.33q29.69.12,59.35,0c2.7,0,3.38.93,3.36,3.49q-.09,45.83,0,91.63c0,4.15,0,4.15,4.23,4.15H584.4c3.67,0,3.69,0,3.69,3.79v58c0,4.08,0,4.08-4,4.08H492.49c-3.93,0-3.95,0-3.95,3.92v91.89c0,3.73,0,3.73-3.77,3.73H426.23c-3.53,0-3.54,0-3.54-3.66V476.21c0-4.81,0-4.81-4.68-4.81H327.75C323.49,471.4,323.49,471.4,323.49,467.28Z"/><path class="cls-2" d="M572.22,973.18c-.55.66-.91,1.18-1.35,1.62q-21.66,21.66-43.28,43.35c-1.77,1.8-2.45.32-3.41-.64l-64.6-64.58c-3.94-3.95-3.94-3.95-7.95.08q-31.92,31.9-63.83,63.81c-2.56,2.56-2.56,2.56-5.07.07-13.92-13.92-27.81-27.89-41.8-41.74-1.59-1.57-1.68-2.44,0-4.08q33-32.79,65.79-65.72c2.65-2.65,2.65-2.66,0-5.27q-32.78-32.77-65.6-65.52c-1.79-1.78-1.79-2.71,0-4.47q21.08-20.87,42-42c1.71-1.73,2.64-1.68,4.33,0q32.81,33,65.72,65.79c2.47,2.48,2.48,2.48,5-.07l65.37-65.37c2.48-2.48,2.49-2.48,5,.07l41.19,41.2c2.54,2.53,2.54,2.55.08,5l-65.17,65.17c-2.76,2.77-2.76,2.77-.07,5.46q32.77,32.8,65.55,65.56C570.85,971.66,571.49,972.4,572.22,973.18Z"/><path class="cls-2" d="M1052.18,467.86c0,2.67-.63,3.61-3.49,3.61q-128.84-.12-257.66,0c-2.81,0-3.53-.83-3.52-3.58.11-19.59,0-39.2.07-58.8,0-3.53,0-3.54,3.68-3.54H1048.1c4,0,4,0,4,4C1052.12,429,1052.07,448.43,1052.18,467.86Z"/><path class="cls-2" d="M1052.12,807.4v57.72c0,4.07,0,4.09-4,4.09H791.56c-4,0-4,0-4-4.09q0-28.86,0-57.72c0-3.67,0-3.69,3.57-3.69h257.36C1052.11,803.71,1052.12,803.73,1052.12,807.4Z"/><path class="cls-2" d="M1052.12,940.14V998.4c0,3.65,0,3.66-3.58,3.66H791.15c-3.57,0-3.57,0-3.57-3.64q0-29.28,0-58.54c0-3.66,0-3.67,3.82-3.67h256.85C1052.11,936.21,1052.12,936.22,1052.12,940.14Z"/></svg>