<svg id="Layer_1" data-name="Layer 1" xmlns="http://www.w3.org/2000/svg" viewBox="0 0 1344 1332"><defs><style>.cls-1{fill:#333232;}.cls-2{fill:#ce142b;}.cls-3{fill:#fefefe;}.cls-4{fill:#00247d;}</style></defs><title>Artboard 7 copy6</title><rect class="cls-1" x="97" y="91" width="1164" height="1164" rx="130" ry="130"/><path class="cls-2" d="M1052.65,663.06a369.25,369.25,0,0,1-8.16,77.43c-.18.83-.35,1.67-.54,2.51H786.51c-13.42,0-13.42,0-13.42,13.41q0,132.11-.05,264.22c-.81.2-1.62.41-2.44.59a371.59,371.59,0,0,1-149.75,4.72V1040c-2.94-2.52-2.45-6-2.46-9.25,0-1.75,0-3.5,0-5.25q-.07-43,0-86V755.24c0-2.35,0-4.68-.1-7-.16-3.29-1.86-5-5.14-5.11-2.93-.14-5.85-.1-8.77-.1H324.7c-.19-.83-.37-1.67-.54-2.5a371.5,371.5,0,0,1-1.06-149.72c.15-.83.33-1.67.5-2.51H604.94c13.42,0,13.42,0,13.42-13.42q0-136,0-272c0-.73,0-1.46-.08-2.2-.17-3.32-.38-6.7,2.52-9.38v8.93A371.8,371.8,0,0,1,770.6,304.9l2.47.6q.07,43.14,0,86.26V576c0,2.35,0,4.68.11,7,.15,3.3,1.85,5,5.12,5.11,2.93.15,5.85.11,8.78.11h257.95c.18.84.34,1.69.5,2.52A369.42,369.42,0,0,1,1052.65,663.06Z"/><path class="cls-3" d="M621,584.28c0,5.37-1.37,6.6-6.64,6.6q-145.62-.11-291.24-.11c.15-.83.33-1.67.5-2.51a367.19,367.19,0,0,1,13.29-47.77c.32-.91.64-1.8,1-2.7a41.08,41.08,0,0,0,6.63.47c28.46-.19,56.93-.08,85.39-.06,2.45,0,4.92-.26,6.3.11-.73-.25-2.23-1.07-3.77-1.84L355.07,497.8c.34-.68.68-1.36,1-2a368.49,368.49,0,0,1,40.95-63.24c.48-.59,1-1.19,1.45-1.78q81.12,40.58,162.23,81.11c3.12,1.56,6.34,2.91,9.08,5.07-2-1.8-1.58-4.19-1.58-6.37q-.06-98.56,0-197.14l2.61-.86a364.33,364.33,0,0,1,47.51-11.92c-.17-3.32-.38-6.7,2.52-9.38v8.93Q620.85,442.23,621,584.28Z"/><path class="cls-3" d="M777.11,740.38c-5.26,0-6.65,1.23-6.64,6.59q.25,137.13.13,274.25c.82-.18,1.63-.39,2.44-.59a362.66,362.66,0,0,0,47.59-15.3c.88-.34,1.75-.69,2.62-1.05q0-91.47,0-183c0-2.3.33-4.71-1.34-6.71l-.11-.12a81.84,81.84,0,0,0,9,5q71.49,35.71,143,71.46c.48-.61,1-1.23,1.45-1.86a367.75,367.75,0,0,0,39.91-63.77c.33-.66.64-1.31,1-2l-57-28.51a33.77,33.77,0,0,0-4.34-2,31.15,31.15,0,0,0,6.65.27c22.57,0,45.15.13,67.71,0,.33-.85.64-1.71,1-2.57A366.69,366.69,0,0,0,1044,743c.19-.84.36-1.68.54-2.51Q910.81,740.46,777.11,740.38Zm44.2,74.1c-.46.62-.18-.67.09-.26a.67.67,0,0,1,.14.09C821.47,814.31,821.39,814.36,821.31,814.48Z"/><path class="cls-3" d="M1045.55,590.78q-133.92,0-267.85.12c-5.82,0-7.27-1.28-7.26-7.2q.31-139.4.16-278.8l2.47.6a365.22,365.22,0,0,1,47.56,15.29l2.61,1q0,94.35,0,188.69c0,2.25.24,4.64-.61,5.44,50.54-25.41,102.19-51.17,154-77.05.5.62,1,1.25,1.44,1.88q7.63,10.05,14.56,20.63c.45.67.88,1.34,1.31,2q-72.4,36.19-144.83,72.37a33.71,33.71,0,0,1-5.78,2.68,37.8,37.8,0,0,1,7.15-.3c28.46,0,56.91-.12,85.38.07a39.4,39.4,0,0,0,18.46-4.34L1016.13,503c.34.68.66,1.36,1,2a365.89,365.89,0,0,1,27.94,83.23C1045.23,589.1,1045.39,590,1045.55,590.78Z"/><path class="cls-3" d="M620.85,1025.94V1040c-2.94-2.52-2.45-6-2.46-9.25,0-1.75,0-3.5,0-5.25a366.7,366.7,0,0,1-47.56-11.93c-.87-.28-1.75-.57-2.61-.87q0-96,0-192c0-2.25-.24-4.65.59-5.45C514,842.87,457.74,870.89,401.5,899c-.51-.59-1-1.19-1.49-1.78q-8.08-9.79-15.49-20.16l-1.13-1.6q79.47-39.75,159-79.46c2.4-1.2,4.71-2.63,6.95-3.24a37.42,37.42,0,0,1-7,.29c-29,0-58.1.1-87.15-.07a37.16,37.16,0,0,0-17.36,4l-78.58,39.3c-.35-.65-.7-1.3-1-2A365.55,365.55,0,0,1,324.7,743c-.19-.83-.37-1.67-.54-2.5q144.79,0,289.6-.13c5.82,0,7.26,1.27,7.24,7.19Q620.7,886.75,620.85,1025.94Z"/><path class="cls-4" d="M570.83,513.44v5.1c-2.62.11-4.16-1.22-5.87-2.06q-84-42-167.91-84c.48-.59,1-1.19,1.45-1.78A368.81,368.81,0,0,1,568.21,313.42l2.61-.86Q570.84,413,570.83,513.44Z"/><path class="cls-4" d="M978,440.8,826.88,516.34c-1.87.94-3.77,1.79-6,2.84-.1-1.9-.23-3.23-.23-4.57q0-96.92,0-193.82l2.61,1A369.28,369.28,0,0,1,976.6,438.92C977.1,439.54,977.57,440.17,978,440.8Z"/><path class="cls-4" d="M570.82,816.64q0,98.46,0,196.93c-.87-.28-1.75-.57-2.61-.87A368.76,368.76,0,0,1,401.5,899c-.51-.59-1-1.19-1.49-1.78l164.44-82.18c1.87-.93,3.58-2.34,6.12-2.39C570.66,814,570.82,815.34,570.82,816.64Z"/><path class="cls-4" d="M975.19,889c-.48.63-1,1.25-1.45,1.86a369.31,369.31,0,0,1-150.49,113.38c-.87.36-1.74.71-2.62,1.05q0-94,0-188.1c0-1.53.13-3.05.2-4.61,2.31-.17,3.87,1.19,5.54,2Z"/><path class="cls-2" d="M555.35,791.58c-1.79.92-3.59,1.86-5.4,2.76L384.52,877.07l-1.13-1.6a366.69,366.69,0,0,1-24.17-39.14c-.35-.65-.7-1.3-1-2l81.95-41a26.46,26.46,0,0,1,12.28-2.9c32.37.11,64.73.07,97.09.07h5.59C555.19,790.88,555.27,791.22,555.35,791.58Z"/><path class="cls-2" d="M1017.11,505l-65.62,32.82a26.28,26.28,0,0,1-12.27,2.94c-34.1-.1-68.2-.06-102.92-.06,1.45-2.63,3.82-3,5.67-3.93L992.6,461.43c.45.67.88,1.34,1.31,2A363.09,363.09,0,0,1,1016.13,503C1016.47,503.66,1016.79,504.34,1017.11,505Z"/><path class="cls-2" d="M1030,790.51c-.32.86-.63,1.72-1,2.57q-5.83,15.46-13,30.22c-.32.66-.63,1.31-1,2l-61.69-30.86c-1.82-.9-3.62-1.85-5.82-3,2.39-1.46,4.35-.89,6.18-.89C979.18,790.52,1004.59,790.56,1030,790.51Z"/><path class="cls-2" d="M443.83,539.79c-2.21,1.54-4.17.91-6,.91-32.16,0-64.33,0-96.5.1a28.22,28.22,0,0,1-4.46-.31c.32-.91.64-1.8,1-2.7a363.69,363.69,0,0,1,17.21-40c.34-.68.68-1.36,1-2L438.56,537C440.23,537.84,441.84,538.74,443.83,539.79Z"/></svg>