<svg id="Layer_1" data-name="Layer 1" xmlns="http://www.w3.org/2000/svg" viewBox="0 0 652 624"><defs><style>.cls-1{fill:#fcb117;}</style></defs><title>Artboard 32 copy 25</title><path class="cls-1" d="M506.39,355.74c0,20.32-.1,40.64.06,60.95a17.42,17.42,0,0,1-6.18,14.14c-16.35,14.62-36,22.53-56.67,28.43-27.23,7.78-55.11,11.22-83.4,12.35-37.64,1.52-74.74-1.74-111.17-11.31-21.9-5.76-42.73-14-60.17-29.18a17.17,17.17,0,0,1-6.34-14c.11-42,0-84,.17-125.94,0-5.2-1.56-7.24-6.65-8.4-16.35-3.7-32.57-8-48.87-12-9.07-2.23-16.08-6.85-18.83-16.24a21.51,21.51,0,0,1,16.82-27.42c15-2.82,30.13-4.79,45.22-7.07q48.75-7.33,97.5-14.6c24.87-3.73,49.71-7.78,74.64-11,8.8-1.14,17.63,1.73,26.42,2.89,33.41,4.4,66.79,9.06,100.18,13.64q46.33,6.35,92.68,12.72c7.64,1,15.33,1.83,22.89,3.3A21.94,21.94,0,0,1,603,248.51c.21,9.56-6.82,18.45-16.93,21.27a68.11,68.11,0,0,1-9.3,2.16c-4.45.61-6,2.65-6,7.31.25,20.65.1,41.31.1,62q0,32.24,0,64.48a22.21,22.21,0,0,1-1,7.94,11.43,11.43,0,0,1-11.52,7.26,11.3,11.3,0,0,1-9.91-9.88,53.66,53.66,0,0,1-.11-5.53q0-59,0-117.88c0-6.56,0-6.72-6.7-6.53-11.17.32-21.69,4.14-32.49,6.46-3.37.72-2.71,3.82-2.71,6.25Q506.37,324.76,506.39,355.74Zm-301-2.5c0,19,.11,37.95-.09,56.92a9.74,9.74,0,0,0,4.83,9.13A136.79,136.79,0,0,0,248,436.56c35.75,10.5,72.31,13.75,109.45,12.49,21.69-.74,43.18-2.79,64.36-7.49,20.4-4.54,40.22-10.69,57.66-22.83,3.2-2.23,4.5-4.75,4.48-8.76-.15-36.94-.08-73.87-.09-110.81,0-6,0-6-5.78-4.73q-62.31,14.19-124.6,28.42a37.85,37.85,0,0,1-18.35-.2q-61.74-15.57-123.54-30.87c-6.2-1.55-6.21-1.55-6.21,5.05Q205.33,325,205.34,353.24ZM575,248.24c-7.42-1-14.84-2-22.26-3q-42.11-5.78-84.2-11.57c-33.72-4.61-67.43-9.33-101.18-13.72-9.58-1.25-19.1-3.87-28.94-2.34-9.28,1.45-18.57,2.78-27.86,4.17l-146.23,22c-9.7,1.46-19.39,3-29.09,4.45a4.56,4.56,0,0,0,2.69,1.76q101.56,25.38,203.14,50.75a14.22,14.22,0,0,0,6.92.08c17.64-4.1,35.32-8.08,53-12.09q15.72-3.57,31.44-7.1c-7.18-.57-14.23-.57-21.28-.57q-38.28,0-76.57,0c-7,0-11.57-4-11.93-10.27-.37-6.56,3.74-11.21,10.85-12.07a54.71,54.71,0,0,1,6.54-.19q93.18,0,186.37,0C543.2,258.45,558.72,251.86,575,248.24Z"/></svg>