<svg id="Layer_1" data-name="Layer 1" xmlns="http://www.w3.org/2000/svg" viewBox="0 0 457 454"><defs><style>.cls-1{fill:#fff;}</style></defs><title>Artboard 26 copy 25</title><path class="cls-1" d="M297,230.07V117.83a1.83,1.83,0,0,0-1.83-1.83H141.83a1.83,1.83,0,0,0-1.83,1.83V319.17a1.83,1.83,0,0,0,1.83,1.83h66.34L190,339.19c-12.47,0-24.94.07-37.4-.05-5.21,0-10.44-.41-15.28-2.91a27.5,27.5,0,0,1-11.43-11.13c-2.43-4.22-2.88-8.77-2.86-13.57.12-32.53.09-65.07.11-97.61a23.84,23.84,0,0,0-.07-2.45,2.72,2.72,0,0,0,.08-.77c0-.91-.13-1.81-.24-2.71a3.3,3.3,0,0,0-.08-1,3.12,3.12,0,0,0,.06-1.14,6.76,6.76,0,0,0,.18-2.78c0-26.57.13-53.15,0-79.72-.09-14.19,12.29-25.48,25.55-25.48q69.67-.06,139.36,0c10.34,0,18.05,5.06,23.49,13.92a22.23,22.23,0,0,1,3.36,11.79q.11,44.29.05,88.57Z"/><path class="cls-1" d="M216.18,365.71a4.11,4.11,0,0,1-3.12-1.34c-3.61-3.64-7.26-7.23-10.89-10.84-2.9-2.88-3-5.51-.08-8.4q28.44-28.49,56.91-56.92,23.28-23.32,46.5-46.7,7.89-7.92,15.81-15.82c2.51-2.5,2.63-2.49,5.32.15,4.47,4.39,8.88,8.85,13.39,13.2,1.84,1.78,2,3.1,0,5.06-8.7,8.43-17.27,17-25.84,25.57-8.19,8.19-16.29,16.46-24.48,24.64-10.23,10.21-20.53,20.36-30.74,30.58-9.84,9.84-19.6,19.75-29.41,29.62-3.29,3.31-6.63,6.58-10,9.86A4.46,4.46,0,0,1,216.18,365.71Z"/><path class="cls-1" d="M219,183q21.12,0,42.26,0c2.64,0,5.17.29,7.27,2.29,2.47,2.34,2.59,5.15,1.65,8s-3.23,4-6,4.47a20.54,20.54,0,0,1-3.24.08c-15.26,0-30.53-.2-45.79.06-12.46.22-24.92.18-37.38.26a13.48,13.48,0,0,1-6.83-1.3,7.06,7.06,0,0,1-3.79-6.88c.4-2.93,1.69-5.3,4.76-6.31a14.53,14.53,0,0,1,4.8-.68Z"/><path class="cls-1" d="M219,220.44c14.08,0,28.17,0,42.26,0,2.64,0,5.17.29,7.27,2.29,2.47,2.33,2.59,5.15,1.65,8s-3.23,4-6,4.46a19.41,19.41,0,0,1-3.24.09c-15.26,0-30.53-.21-45.79.06-12.46.22-24.92.18-37.38.26a13.48,13.48,0,0,1-6.83-1.3,7.07,7.07,0,0,1-3.79-6.89c.4-2.92,1.69-5.29,4.76-6.31a15.07,15.07,0,0,1,4.8-.68Q197.83,220.46,219,220.44Z"/><path class="cls-1" d="M219,145.47c14.54,0,29.09.19,43.63-.11,4.58-.09,8.29,4.08,8.17,7.54-.15,4.39-3.32,7.48-8.23,7.49q-43.77,0-87.55,0a7.57,7.57,0,0,1-4.8-13.64c1.54-1.25,3.31-1.29,5.14-1.29Z"/><path class="cls-1" d="M218.66,273.22q-22.08,0-44.16,0a7.06,7.06,0,0,1-7.18-5.41,7.63,7.63,0,0,1,3.2-8,6.46,6.46,0,0,1,3.86-1q44.57,0,89.13,0a6.78,6.78,0,0,1,7.16,7.13,6.92,6.92,0,0,1-7.31,7.27Q241,273.26,218.66,273.22Z"/><path class="cls-1" d="M356.66,218c-.19,1.65-1.6,3.14-2.53,4.86-2.26,4.18-4.17,8.57-7,12.45-1.31,1.82-3.5,1.79-5,.21-3.61-3.72-7.23-7.43-11-11q-5-4.69,1.06-7.61c3.88-1.85,7.69-3.88,11.39-6.06,4.4-2.58,4.95-2.61,8.55.95q1.72,1.71,3.46,3.38A3.35,3.35,0,0,1,356.66,218Z"/><path class="cls-1" d="M351.72,207.4a2.54,2.54,0,0,1,1.07-2.42q5.18-2.85,10.42-5.6c.9-.47,1.86-.81,2.75.05s.69,2,.19,3c-1.72,3.34-3.44,6.69-5.36,9.93-1.41,2.37-2.58,2.4-4.68.49-1.13-1-2.19-2.13-3.33-3.13A3.32,3.32,0,0,1,351.72,207.4Z"/></svg>