<svg id="Layer_1" data-name="Layer 1" xmlns="http://www.w3.org/2000/svg" viewBox="0 0 457 454"><defs><style>.cls-1{fill:#fff;}</style></defs><title>Artboard 265</title><path class="cls-1" d="M209.74,322.17a195.18,195.18,0,0,0-32.38-11.63c-22.77-6.31-46.11-8.28-69.66-8.28-7,0-7,0-7-6.87q0-40,0-79.93,0-54.71,0-109.42c0-6.85.14-6.92,7-7,28.82-.38,57.15,3,84.61,12,15.67,5.11,30.8,11.68,44.43,21.17,2.65,1.85,4.6,2.18,7.52.26,19.94-13.15,41.76-21.66,65.09-26.84A284.79,284.79,0,0,1,374.67,99c6.19.07,6.52.34,6.52,6.51q0,95.23.07,190.49c0,4.75-1.45,6.45-6.29,6.31a264.11,264.11,0,0,0-55.17,4.38c-16.6,3-32.72,8.09-47.86,16.28h4.3q54,0,108,0c6.72,0,6.78-.09,6.83-6.58.2-23.81.58-47.62.56-71.43,0-37.79-.39-75.58-.5-113.37,0-2.65-1.37-6.31,1.88-7.65,3.54-1.46,7.54-1,11.3,0,1.3.36,1.67,1.55,1.74,2.76.09,1.5.12,3,.12,4.5q0,101.24,0,202.49c0,7.69,0,7.7-7.78,7.7q-62.49,0-125-.08a10.65,10.65,0,0,0-9.29,4.39,30.7,30.7,0,0,1-48.19,0c-2.76-3.4-5.64-4.42-9.78-4.4q-62.25.17-124.5.07c-7.81,0-7.83,0-7.83-7.65V131.3c0-7.7.39-8.06,8.23-8,1.34,0,2.67.18,4,.15,3.06,0,4.72,1.12,4.33,4.45a35.57,35.57,0,0,0,0,4q-.06,56-.12,112c0,24.31.19,48.63,0,72.94,0,4.79,1.37,6.28,6.21,6.25,36.17-.17,72.33-.08,108.5-.1C206.39,323,207.92,323.43,209.74,322.17ZM367.68,200.71c0-27.66-.07-55.33.08-83,0-4.14-1.31-5.64-5.46-5.43-12.64.63-25.26,1.45-37.71,3.7-25.22,4.57-49.26,12.39-71.2,26.09-4.3,2.68-6.22,5.42-6.21,10.67.2,53.49.13,107,.13,160.47,0,1,0,2,0,3-.12,2.69.75,3.29,3.21,1.88,3.89-2.23,7.87-4.32,11.9-6.31,31.16-15.37,64.43-21.7,98.87-22.57,4.95-.13,6.56-1.4,6.52-6.53C367.57,255.37,367.69,228,367.68,200.71ZM233.82,232.2c0-26.83-.1-53.66.1-80.48,0-4.49-1.7-7.18-5.36-9.19-8.15-4.49-16.15-9.17-24.78-12.84-26.89-11.45-55.11-16-84-17.39-4.33-.21-5.82,1.32-5.86,5.69-.25,27.81.24,55.62-.51,83.44-.73,27.3,1.16,54.62.56,81.94,0,.67,0,1.33,0,2,0,2.45,1.24,3.57,3.71,3.68,4.82.21,9.63.63,14.45.83a214.91,214.91,0,0,1,41.44,5.8c19.12,4.64,37.54,11.29,54.77,21,5.2,2.94,5.46,2.67,5.46-3.49Q233.84,272.69,233.82,232.2Z"/></svg>