<svg id="Layer_1" data-name="Layer 1" xmlns="http://www.w3.org/2000/svg" viewBox="0 0 1344 1332"><defs><style>.cls-1{fill:#333232;}.cls-2,.cls-3{fill:#fcb117;}.cls-3{font-size:881.49px;font-family:MotivaSans-Bold, Motiva Sans;font-weight:700;}</style></defs><title>Artboard 7 copy 196</title><rect class="cls-1" x="62" y="93" width="1164" height="1164" rx="130" ry="130"/><path class="cls-2" d="M659.62,1041.37c-59.1,0-118.19.12-177.29,0-41.71-.12-73.43-33-72.48-74.67A69.56,69.56,0,0,1,415.43,941q31.33-73.77,62.93-147.42Q515.92,706,553.71,618.41a31.84,31.84,0,0,0,2.39-13.14q0-143.11,0-286.23c0-9.79,0-9.79-10.2-9.83-12.85,0-18.77-5.23-18.42-16.11.25-7.64,4.52-12.67,12.14-14a43.63,43.63,0,0,1,7.42-.35l185.4.05c14.85,0,29.71-.14,44.56,0,6.25.08,11.73,2.47,14.06,8.69s1.67,12.45-3.2,17.63c-4,4.25-9.26,4-14.49,4.06-9.62,0-9.75.06-9.76,9.45q-.08,144.46-.09,288.94a26,26,0,0,0,2.23,10.46q53.81,125.56,107.52,251.17Q888.57,905,904.1,940.65c20.35,47-14.48,100.48-65.84,100.67C778.71,1041.55,719.17,1041.38,659.62,1041.37Zm.25-30.41H735c33.39,0,66.78.28,100.16-.1,32.44-.36,52.57-30.42,40.11-59-10.55-24.18-20.82-48.47-31.24-72.7q-29.55-68.64-59.11-137.28c-15-35-29.58-70.23-45.07-105-5.85-13.14-8-26.28-8-40.56.34-92.71.18-185.42.17-278.13,0-8.92,0-8.94-9-9H597.79c-10.24,0-10.25,0-10.25,10.46q0,144.81,0,289.64c0,5-.51,9.81-2.56,14.5Q570.94,656,557.12,688.37q-26.77,62.48-53.45,125-29.54,69-59.08,138c-5.2,12.19-5.78,24.35.77,36.45,8.92,16.48,23.12,23.16,41.27,23.14Q573.24,1010.9,659.87,1011Z"/><path class="cls-2" d="M658.65,1016.71H452.5c-2.21,0-4.42.09-6.62-.05-15.1-1-23.52-14.83-17.8-30.38,12.77-34.69,26-69.19,39.06-103.73q25.61-67.51,51.32-135c5-13,10-26,15-39,3.8-9.84,10.2-14,20.13-14,64,.32,128,.15,192.08.15,6.86,0,13.74.42,20.58,0,9.36-.53,15,4.56,18.44,13.67q23.55,62,47.11,123.93,28.81,76,57.57,152.07c2,5.18,3.44,10.31,1.86,16.06-2.76,10.11-9.18,15.7-19.84,16-11,.35-22.07.16-33.11.16Q748.47,1016.74,658.65,1016.71Z"/><rect class="cls-1" x="62" y="81" width="1164" height="1164" rx="130" ry="130"/><text class="cls-3" transform="translate(314.82 977.53)">A</text></svg>