<svg id="Layer_1" data-name="Layer 1" xmlns="http://www.w3.org/2000/svg" viewBox="0 0 226 213"><defs><style>.cls-1{fill:#fcb117;}</style></defs><title>Artboard 295</title><path class="cls-1" d="M85.46,35.27h66.25c1.14.12,2.27.31,3.41.36,22.91,1,40,17,42.34,39.74,1.11,10.64,1.07,21.33,1,32-.07,15.53.49,31.08-1,46.57-2.12,21.64-17.83,37.31-39.43,39.44a310.9,310.9,0,0,1-32,1c-15.62-.07-31.26.56-46.84-1.06-19.5-2-33.77-14.69-38.19-33.67a119.25,119.25,0,0,1-1.64-12V81.38c.3-2.53.56-5.07.91-7.6C42.85,54.71,55.33,41.07,74,36.87,77.75,36,81.63,35.83,85.46,35.27ZM54.36,114.4c0,12.26-.61,24.55.53,36.79.85,9.08,4.11,17,12,22.31a31.29,31.29,0,0,0,16.5,5.15q35.46,1.62,70.94,0a30.69,30.69,0,0,0,17.55-6c7.81-6,10.37-14.4,11-23.7,1-14.55.48-29.12.54-43.68,0-9.88.27-19.78-1.07-29.61C180.47,62.32,172,53.57,158.75,51.3a82.66,82.66,0,0,0-14-1.07c-20.83,0-41.67-.78-62.48.57-14.69,1-24.37,9.71-27,24.2a57.78,57.78,0,0,0-.94,10C54.34,94.8,54.36,104.6,54.36,114.4Z"/><path class="cls-1" d="M118.75,155.76a41.2,41.2,0,0,1-41.2-41.08C77.4,92.3,96.36,73.34,118.74,73.47a41.15,41.15,0,0,1,0,82.29Zm26-41a26.08,26.08,0,1,0-26.13,25.94A25.74,25.74,0,0,0,144.75,114.73Z"/><path class="cls-1" d="M161.19,82.09a9.85,9.85,0,0,1-10-9.85A10,10,0,0,1,161,62.42,9.88,9.88,0,0,1,171,72.35,9.69,9.69,0,0,1,161.19,82.09Z"/></svg>