<svg id="Layer_1" data-name="Layer 1" xmlns="http://www.w3.org/2000/svg" viewBox="0 0 226 213"><defs><style>.cls-1{fill:#fcb117;}</style></defs><title>Artboard 29 copy5</title><path class="cls-1" d="M54.36,25.27H172.55l2.28.56c11.94,3,19.73,10.43,23.39,22.16.58,1.83.83,3.76,1.23,5.65V168.55a41.69,41.69,0,0,1-2.17,8.79,31.67,31.67,0,0,1-29.85,20q-53.44,0-106.88,0a52,52,0,0,1-5.44-.27C39.72,195.46,27.37,182,27.36,166.52q-.06-55.44,0-110.88c0-8.91,3.71-16.31,10.17-22.33A32.62,32.62,0,0,1,54.36,25.27ZM114.24,53a78.13,78.13,0,0,0-14,1.14c-15.06,2.7-28.2,9-38.41,20.72-13.1,15-14.78,35.32-4.13,52.07,7.62,12,18.85,19.27,32.11,23.69a88.63,88.63,0,0,0,13.09,3c5.16.88,6.67,3.08,5.91,8.26-.33,2.22-.72,4.43-1.07,6.64-.41,2.64.64,3.68,3.25,3.19a16.8,16.8,0,0,0,4.84-2.05A227.09,227.09,0,0,0,151.49,145c7-5.92,13.44-12.42,18.17-20.39a40,40,0,0,0,5.49-25.83c-1.53-12.66-7.93-22.62-17.6-30.57C144.7,57.64,129.63,53.3,114.24,53Z"/><path class="cls-1" d="M124.56,106.08c.47-.59.25-1.28.25-1.91q0-6,0-12c0-1.6.66-2.27,2.29-2.31,4.83-.11,4.83-.16,4.83,4.64q0,11.26,0,22.54c0,2.52-.32,2.66-2.82,2.88a5.65,5.65,0,0,1-5.74-2.84c-2.83-4.15-5.93-8.12-8.93-12.15-.31-.43-.66-.84-1.07-1.34-.61.62-.41,1.31-.42,1.92,0,3.82,0,7.63,0,11.45,0,2.48-.43,2.88-2.83,2.92-4.39.08-4.48,0-4.48-4.39q0-11.18,0-22.36c0-3,.31-3.08,3.19-3.3a5.56,5.56,0,0,1,5.55,2.82c2.87,4.19,6,8.21,9.05,12.29C123.74,105.37,123.91,105.94,124.56,106.08Z"/><path class="cls-1" d="M135.84,104.88c0-4.06,0-8.12,0-12.18,0-2.41.41-2.8,2.72-2.8q7.55,0,15.09,0c2.2,0,2.54.36,2.59,2.51.12,4.53.06,4.59-4.41,4.59-2.18,0-4.36.06-6.54,0-1.53,0-2.2.46-2.18,2.08s.5,2.21,2.1,2.16c2.79-.07,5.58,0,8.37,0,2.19,0,2.61.48,2.66,2.71.11,4.5,0,4.59-4.45,4.6-2.18,0-4.36,0-6.54,0-1.4,0-2.12.43-2.14,2s.72,2.12,2.21,2.09c2.79,0,5.58,0,8.36,0,2.09,0,2.51.54,2.56,2.64.12,4.59.08,4.63-4.56,4.63-4.12,0-8.24,0-12.36,0-3.19,0-3.48-.29-3.49-3.56C135.83,112.51,135.84,108.69,135.84,104.88Z"/><path class="cls-1" d="M71,104.87c0-4.18,0-8.35,0-12.53,0-2.11.34-2.4,2.44-2.45,4.66-.11,4.66-.11,4.66,4.63,0,3.27-.1,6.54,0,9.81.11,2.62-1.19,5.94.59,7.69s5,.38,7.55.56c.79,0,1.58,0,2.36,0,2.12.1,2.52.53,2.57,2.62.11,4.66.11,4.66-4.48,4.66-4.36,0-8.72,0-13.08,0-2.26,0-2.63-.39-2.64-2.66C71,113.11,71,109,71,104.87Z"/><path class="cls-1" d="M94.64,104.72c0-4.11,0-8.23,0-12.34,0-2.1.37-2.43,2.42-2.49,4.68-.12,4.68-.12,4.68,4.58q0,11.25,0,22.5c0,2.6-.31,2.89-2.94,2.92-4.11,0-4.16,0-4.16-4.1C94.63,112.1,94.64,108.41,94.64,104.72Z"/></svg>