<svg id="Layer_1" data-name="Layer 1" xmlns="http://www.w3.org/2000/svg" viewBox="0 0 1344 1332"><defs><style>.cls-1{fill:#333232;}.cls-2{fill:#fcb117;}</style></defs><title>Artboard 7 copy 56</title><rect class="cls-1" x="93" y="91" width="1164" height="1164" rx="130" ry="130"/><path class="cls-2" d="M1056.82,693.66V706c-4.57,6.83-11.24,9-19.11,9q-43.41-.15-86.81-.11c-10.89,0-10.9,0-10.9,10.82q0,126.51,0,253c0,21.29-3.93,25.29-25,25.3q-243.48,0-487,0a87.18,87.18,0,0,1-11.64-.76c-6.93-.93-11.66-5.3-12.92-12.12a57.28,57.28,0,0,1-.64-10.41q0-129,0-257.95c0-8.82-.22-9-8.93-9.05-29.35,0-58.69-.13-88-.07-8.05,0-15-1.88-19.83-8.87V692.43c4.27-8,11.46-13.35,17.64-19.56Q379.45,596.8,455.5,521,556.92,419.63,658.3,318.23c8-8,17-8,24.84-.11q14.16,14.13,28.27,28.31,25.7,25.68,51.42,51.32c1.34,1.33,2.52,4.1,4.77,3,2-1,1.06-3.71,1.13-5.68.12-3.48,0-7,0-10.46.19-15.44,6-21.34,21.26-21.37q37.86-.09,75.72,0c16.36,0,21.46,5.11,21.46,21.28,0,42.68.15,85.36-.14,128,0,6.94,2.08,11.85,7,16.71q76.41,75.93,152.46,152.24C1050.27,685.27,1054.31,688.82,1056.82,693.66Z"/></svg>