<svg id="Layer_1" data-name="Layer 1" xmlns="http://www.w3.org/2000/svg" viewBox="0 0 1344 1332"><title>Artboard 7 copy 95</title><path d="M655.75,1073.93c-64.33,0-128.67.13-193-.06-45.4-.13-79.93-35.9-78.89-81.29a75.48,75.48,0,0,1,6.07-27.91q34.1-80.29,68.5-160.48,40.89-95.38,82-190.69a35,35,0,0,0,2.6-14.31q0-155.79,0-311.58c0-10.66,0-10.66-11.1-10.71-14,0-20.43-5.69-20-17.53.27-8.32,4.92-13.79,13.22-15.21a47.15,47.15,0,0,1,8.07-.37q100.92,0,201.83,0c16.17,0,32.34-.14,48.5,0,6.81.08,12.77,2.69,15.31,9.46s1.81,13.56-3.49,19.18c-4.35,4.63-10.08,4.41-15.77,4.42-10.47,0-10.61.07-10.62,10.3q-.07,157.26-.1,314.53a28.35,28.35,0,0,0,2.43,11.39q58.57,136.7,117,273.42c11.11,25.94,22.37,51.82,33.59,77.71,22.15,51.15-15.77,109.39-71.68,109.6C785.39,1074.12,720.57,1073.93,655.75,1073.93Zm.27-33.11h81.77c36.34,0,72.69.3,109-.11,35.31-.39,57.22-33.11,43.66-64.21-11.48-26.32-22.66-52.77-34-79.14q-32.16-74.73-64.35-149.44c-16.36-38.12-32.2-76.46-49.06-114.35-6.36-14.3-8.74-28.6-8.69-44.15.38-100.92.2-201.84.19-302.77,0-9.71,0-9.74-9.85-9.74H588.44c-11.15,0-11.16,0-11.16,11.39q0,157.65,0,315.3c0,5.46-.55,10.68-2.78,15.79q-15.31,35.07-30.36,70.27Q515,757.66,486,825.71,453.82,900.84,421.67,976c-5.66,13.26-6.3,26.51.83,39.67,9.72,17.94,25.17,25.21,44.93,25.19Q561.72,1040.76,656,1040.82Z"/><path d="M654.69,1047.09q-112.2,0-224.41,0c-2.4,0-4.81.1-7.21-.06-16.44-1.09-25.6-16.14-19.37-33.06C417.6,976.18,432,938.63,446.22,901q27.87-73.5,55.87-146.93c5.39-14.17,10.89-28.28,16.35-42.41,4.15-10.72,11.1-15.27,21.92-15.22,69.7.34,139.39.16,209.09.16,7.47,0,15,.45,22.41,0,10.19-.58,16.31,5,20.07,14.87Q817.57,779,843.21,846.43q31.38,82.76,62.67,165.55c2.14,5.64,3.75,11.21,2,17.48-3,11-10,17.09-21.6,17.45-12,.39-24,.18-36,.18Z"/></svg>