<svg id="Layer_1" data-name="Layer 1" xmlns="http://www.w3.org/2000/svg" viewBox="0 0 1344 1332"><defs><style>.cls-1{fill:#fcb117;}</style></defs><title>Artboard 7 copy 75</title><path class="cls-1" d="M599.44,743.6V670.27c0-4.63,0-4.7-4.48-5.14a398.07,398.07,0,0,1-67-12.07c-30.06-8.27-58.76-19.69-84.73-37.29-31.39-21.28-53.86-49.54-66.29-85.47a212.93,212.93,0,0,1-11.06-55.88,148.31,148.31,0,0,1,9.55-64.29c7-17.94,17.1-34,29.29-48.79,20.72-25.11,44.65-46.56,72.61-63.41a236.06,236.06,0,0,1,91.25-32.33c8.1-1.09,16.23-2,24.33-3.12,5.35-.74,5.48-1,5.76-6.55,1.33-26.58.5-53.18.72-79.77.08-8.58-.61-7.45,7.44-7.4q52,.31,104,.75c4.24,0,4.36.17,4.4,4.35.23,21.53.41,43.06.7,64.59a108.49,108.49,0,0,0,1,10.92c.62,5.47,3.9,8.26,9.21,9.24,5.1.95,10.26,1.17,15.38,1.85A224.46,224.46,0,0,1,827.67,290a230.64,230.64,0,0,1,65.89,59.16,259.37,259.37,0,0,1,33.91,58.51c7.26,17.62,13.74,35.54,16.7,54.51.1.64.21,1.28.25,1.92.33,4.82-.67,6-5.52,6q-58,0-116-.11c-2.59,0-5.18-.12-7.75,0-2.77.15-3.77-1-4-3.75-.71-10-2.67-19.57-7.91-28.33-6.72-11.23-16.21-19.46-27.34-25.94-17.77-10.34-37.23-14.89-57.53-16.5-2-.16-2.51.6-2.43,2.32,0,.64,0,1.29,0,1.93V543.44c0,4.86.13,4.82,5,5.28,23.12,2.17,46.36,3.2,69.12,8.48,47.68,11.08,90.05,31.83,123.71,68.09,26.45,28.47,42.34,62,45.67,101a163,163,0,0,1-4,50.63c-4.13,17.93-9.95,35.18-19.61,51a265.89,265.89,0,0,1-41.29,51.51c-23.33,22.86-50.77,39.35-80.51,52.31A303.87,303.87,0,0,1,754,951a206.69,206.69,0,0,1-33.6,4.17c-3.78.15-4.39,1.73-4.39,4.89,0,18.09,0,36.18-.29,54.27-.24,12.91-.42,25.83-.36,38.75,0,3.34-1.32,4.22-4.41,4.22-19.92,0-39.85-.15-59.76.26-15.72.32-31.44.22-47.15.41-4.32,0-4.56-.2-4.56-4.55q0-44.58,0-89.16c0-5.33-.13-5.41-5.32-5.67-29.11-1.5-57.51-6.51-84.64-17.54-22.51-9.16-42.88-21.93-61.75-37.16-16.57-13.38-31.66-28.2-44.22-45.46A207.86,207.86,0,0,1,373,796.76a294.56,294.56,0,0,1-9.75-44.42,91.9,91.9,0,0,1-.44-9.67c-.1-2.55,1-3.4,3.48-3.37,9.58.11,19.18-.17,28.75.22,9.26.39,18.51.26,27.76.36,20.89.23,41.77.46,62.65.55,2.78,0,4,1,4.82,3.56,4,12.7,9.36,24.71,17.4,35.47,12.39,16.59,28.12,28.7,47.61,35.67A119.15,119.15,0,0,0,594.57,822c4.86,0,4.87,0,4.87-4.76ZM716,753.41V817.7c0,4.3,0,4.2,4.29,4.33a160,160,0,0,0,61.79-9.77c14.45-5.4,27.51-12.77,37-25.4a30.79,30.79,0,0,0,5.81-13.16c1.54-8.43,1.17-16.94,1.3-25.44.16-10.9-3.4-20.53-9.76-29.16-12-16.25-28.86-24.83-48-29.36-15.68-3.71-31.8-3.78-47.8-4.56C716,685,716,685,716,689.77ZM599.44,458.53c0-21.53-.05-43.06,0-64.59,0-3.1-.94-4.11-4.07-4-6.24.2-12.45.69-18.65,1.35-15.9,1.7-31.14,5.54-44.9,14.05-14.25,8.8-24.74,20.35-27,37.72-.63,4.79-1,9.62-1.41,14.44a34.7,34.7,0,0,0,2.7,17.38c7.1,15.81,18.5,28,33.17,36.85,17.06,10.33,36,14.59,55.78,15,4.25.09,4.35,0,4.35-4.25Q599.46,490.51,599.44,458.53Z"/></svg>