<svg id="Layer_1" data-name="Layer 1" xmlns="http://www.w3.org/2000/svg" viewBox="0 0 1344 1332"><defs><style>.cls-1{fill:#424242;}.cls-2{fill:#c5c5c5;}</style></defs><title>Artboard 7 copy 35</title><path d="M1023.61,522.5q-365.11,0-730.21,0c.27-.82.55-1.64.85-2.46,47.28-136.21,168.82-237.7,316.17-256H706.6c147.34,18.33,268.87,119.81,316.15,256C1023.05,520.83,1023.34,521.66,1023.61,522.5Z"/><path class="cls-1" d="M1044,646.5A384.64,384.64,0,0,1,1021.7,776c-.29.84-.59,1.67-.89,2.5q-362.32,0-724.63,0c-.3-.82-.6-1.64-.88-2.46a387.23,387.23,0,0,1-1.9-253.54c.27-.82.55-1.64.85-2.46h728.5c.3.83.59,1.66.86,2.5A384.51,384.51,0,0,1,1044,646.5Z"/><path class="cls-2" d="M1021.7,776c-.29.84-.59,1.67-.89,2.5C966.91,926.4,825,1032,658.5,1032S350.06,926.38,296.18,778.46c-.3-.82-.6-1.64-.88-2.46Z"/></svg>