<svg id="Layer_1" data-name="Layer 1" xmlns="http://www.w3.org/2000/svg" viewBox="0 0 1344 1332"><defs><style>.cls-1{fill:#dc0000;}.cls-2{fill:#fecd00;}</style></defs><title>Artboard 75</title><path d="M1020.61,545.5q-365.11,0-730.21,0c.27-.82.55-1.64.85-2.46,47.28-136.21,168.82-237.7,316.17-256H703.6c147.34,18.33,268.87,119.81,316.15,256C1020.05,543.83,1020.34,544.66,1020.61,545.5Z"/><path class="cls-1" d="M1041,669.5A384.64,384.64,0,0,1,1018.7,799c-.29.84-.59,1.67-.89,2.5q-362.32,0-724.63,0c-.3-.82-.6-1.64-.88-2.46a387.23,387.23,0,0,1-1.9-253.54c.27-.82.55-1.64.85-2.46h728.5c.3.83.59,1.66.86,2.5A384.51,384.51,0,0,1,1041,669.5Z"/><path class="cls-2" d="M1018.7,799c-.29.84-.59,1.67-.89,2.5C963.91,949.4,822,1055,655.5,1055S347.06,949.38,293.18,801.46c-.3-.82-.6-1.64-.88-2.46Z"/></svg>