<svg id="Layer_1" data-name="Layer 1" xmlns="http://www.w3.org/2000/svg" viewBox="0 0 1344 1332"><title>Artboard 7 copy 45</title><path d="M1110,695.08v12.84c-4.77,7.12-11.72,9.41-19.94,9.39-30.18-.11-60.36-.09-90.54-.12-11.35,0-11.37,0-11.37,11.29V992.39c0,22.2-4.11,26.38-26.08,26.38q-254,0-507.92,0A94.85,94.85,0,0,1,442,1018c-7.23-1-12.16-5.53-13.47-12.64a59.64,59.64,0,0,1-.67-10.86q0-134.54,0-269.06c0-9.2-.24-9.42-9.32-9.44-30.61-.05-61.22-.14-91.82-.07-8.4,0-15.67-2-20.69-9.25V693.79c4.45-8.31,11.95-13.92,18.4-20.39Q403.47,594.07,482.8,515q105.78-105.74,211.53-211.5c8.32-8.31,17.69-8.3,25.9-.12,9.86,9.83,19.66,19.7,29.5,29.53q26.79,26.79,53.62,53.53c1.41,1.39,2.63,4.28,5,3.13,2.12-1,1.1-3.87,1.18-5.92.13-3.64,0-7.28.06-10.92.19-16.1,6.25-22.25,22.17-22.29q39.48-.07,79,0c17.06,0,22.38,5.33,22.38,22.19,0,44.52.15,89-.14,133.56-.05,7.24,2.16,12.36,7.26,17.43q79.71,79.21,159,158.79C1103.17,686.33,1107.39,690,1110,695.08Z"/></svg>