<svg id="Layer_1" data-name="Layer 1" xmlns="http://www.w3.org/2000/svg" viewBox="0 0 1344 1332"><title>Artboard 7 copy 125</title><path d="M275.49,454.08V392.92c0-3.94,0-3.95,4-3.95h96.62c4,0,4,0,4-4V336.55c0-16.24.06-32.5-.06-48.74,0-2.63.73-3.53,3.42-3.52q31.29.13,62.59,0c2.84,0,3.56,1,3.54,3.68q-.11,48.33,0,96.64c0,4.37,0,4.37,4.46,4.37h96.64c3.87,0,3.89,0,3.89,4v61.14c0,4.3,0,4.3-4.19,4.3H453.72c-4.14,0-4.16,0-4.16,4.13v96.92c0,3.94,0,3.94-4,3.94H383.85c-3.73,0-3.74,0-3.74-3.87v-96c0-5.07,0-5.07-4.93-5.07H280C275.49,458.42,275.49,458.42,275.49,454.08Z"/><path d="M537.81,987.62a21.77,21.77,0,0,1-1.42,1.72q-22.85,22.85-45.65,45.72c-1.86,1.89-2.58.34-3.59-.68q-34.08-34.05-68.13-68.11c-4.16-4.16-4.16-4.16-8.39.08l-67.32,67.3c-2.7,2.7-2.7,2.7-5.34.07q-22-22-44.09-44c-1.67-1.66-1.77-2.57,0-4.3q34.75-34.57,69.39-69.31c2.79-2.79,2.79-2.81,0-5.56q-34.56-34.57-69.19-69.1c-1.88-1.87-1.88-2.86,0-4.71q22.25-22,44.26-44.26c1.8-1.83,2.78-1.77,4.57,0q34.59,34.75,69.31,69.38c2.6,2.61,2.61,2.61,5.3-.07q34.47-34.45,68.94-68.95c2.62-2.61,2.63-2.61,5.31.07l43.45,43.46c2.68,2.67,2.68,2.69.08,5.27l-68.73,68.74c-2.91,2.92-2.91,2.92-.07,5.76q34.56,34.58,69.13,69.14C536.37,986,537,986.81,537.81,987.62Z"/><path d="M1044,454.69c0,2.82-.66,3.8-3.68,3.8q-135.88-.12-271.74,0c-3,0-3.72-.87-3.71-3.76.11-20.67.06-41.35.07-62,0-3.73,0-3.74,3.88-3.74H1039.7c4.23,0,4.24,0,4.24,4.26C1043.94,413.71,1043.89,434.2,1044,454.69Z"/><path d="M1043.94,812.79v60.87c0,4.3,0,4.31-4.23,4.31H769.14c-4.2,0-4.2,0-4.21-4.31q0-30.43,0-60.87c0-3.88,0-3.89,3.77-3.89h271.43C1043.93,808.9,1043.94,808.91,1043.94,812.79Z"/><path d="M1043.94,952.78v61.44c0,3.85,0,3.87-3.78,3.87H768.71c-3.77,0-3.77,0-3.77-3.84q0-30.88,0-61.74c0-3.86,0-3.88,4-3.88h270.88C1043.93,948.63,1043.94,948.65,1043.94,952.78Z"/></svg>