<svg id="Layer_1" data-name="Layer 1" xmlns="http://www.w3.org/2000/svg" viewBox="0 0 457 454"><title>Artboard 26 copy5</title><path d="M267,263.85c-16.87,12.46-35.09,22.63-54,31.54a379.51,379.51,0,0,1-45,17.93c-2,.66-2.37,1.92-2.36,3.78,0,9.3,0,18.61,0,27.91H36.35c-.07-10.7-.67-21.41.51-32.06,2.62-23.5,15.6-38.5,38.08-45.42,9.36-2.88,9.37-2.86,16.24,4,5.87,5.85,11.77,11.65,17.54,17.59,1.54,1.58,2.46,1.6,4,0,7.51-7.68,15.19-15.19,22.7-22.87a9.69,9.69,0,0,1,6.9-3.3c32.13-1.52,60.79-13.9,88.72-28.52,5.41-2.83,10.74-5.83,16.11-8.72,10.73-5.79,24.47.6,28.46,13.2C278.66,248.53,275.63,257.49,267,263.85Z"/><path d="M229.85,318.9c.58-1.52,1.65-1.68,2.49-2.1,9.1-4.5,18.06-9.28,26.72-14.59a12.18,12.18,0,0,1,6.68-1.82q65.52.08,131,0c4.61,0,4.62,0,4.62-4.44V118.84c0-4.49,0-4.5-4.58-4.5H154.59c-4.32,0-4.32,0-4.32,4.43q0,22.64,0,45.25c0,.94.46,2.21-.51,2.73s-1.77-.6-2.52-1.14A57.39,57.39,0,0,0,134,158.44a3.14,3.14,0,0,1-2.3-3.32c0-14.1-.18-28.2.12-42.29.2-9.84,8.09-17.09,18-17.1q126.12,0,252.26,0c10.41,0,17.94,7.51,17.94,17.91q0,93.6,0,187.2A17.74,17.74,0,0,1,401.88,319q-84.58,0-169.16,0C231.85,319.05,231,319,229.85,318.9Z"/><path d="M111.62,260c-24.85,0-45.25-20.2-45-45a45,45,0,1,1,90.07.45C156.66,240,136.43,260,111.62,260Z"/></svg>