<svg id="Layer_1" data-name="Layer 1" xmlns="http://www.w3.org/2000/svg" viewBox="0 0 1344 1332"><title>Artboard 7 copy 115</title><path d="M973.14,681.78a4.66,4.66,0,0,1,2.36-3.86,5.27,5.27,0,0,1,.7-1,72.14,72.14,0,0,1,11.2-9.74c1.22-2,2.47-4,3.86-5.94a31.51,31.51,0,0,1,6.46-6.67,17.74,17.74,0,0,1,1.62-1.88,483.12,483.12,0,0,0,57.34-69c19.53-28.67,36.39-58.68,40.6-93.9,3.06-25.61-3.4-48.31-23.81-65.51-21.85-18.39-48.38-23.41-75.75-25.71-6.47-.55-13-.93-19.66-1a96.33,96.33,0,0,1-19.58.07,9.71,9.71,0,0,1-3.7,1c-44,2.89-86.79,12.46-128.93,25.07-5.1,1.53-7.1.47-8.3-4.74a667.62,667.62,0,0,0-18.62-65.32c-3.33-9.78-3.35-9.81-11.31-3.72s-16.81,10.78-26.6,12.76c-6.33,1.28-6.92,3.55-4.82,9.1,7.62,20.1,13.26,40.82,18.37,61.69,1,4.2.87,6.9-4,8.63-32.49,11.53-64,25.36-95.31,39.87-3.19,1.48-6.11,2-9.45.4-31.38-14.81-63.25-28.49-95.89-40.31-4.21-1.52-5.38-3.93-4.24-8.08,2.5-9.1,4.76-18.26,7.29-27.36,9.64-34.7,21.71-68.44,41.64-98.75,13.09-19.91,28.35-37.47,54.45-39.87a5.76,5.76,0,0,0,5.25-4c7.83-19.35,21.37-33.12,40.66-41.11,4.6-1.91,3.95-3.71.54-6.17-9.87-7.14-20.51-12.57-32.56-14.91-25.67-5-46.79,4.67-65.61,20.94-21.05,18.21-36,41.09-48.56,65.61-20.35,39.72-33.94,81.88-44.78,125-3.2,12.75-1,12.64-15.22,8.56-36.58-10.45-73.51-19.16-111.56-22.18-1-.08-2-.21-3-.38a126.72,126.72,0,0,1-13.29-1.7c-2.84,1.19-5.14.4-7.43.31-27.08-1.07-53.79,1.06-79.41,10.62-19.91,7.43-36.07,19.5-45.21,39.38-8.29,18-7.92,36.66-3.48,55.44,7.56,32.07,23.93,59.85,42.63,86.45,8.42,12,17.56,23.41,27.1,34.51a15.19,15.19,0,0,1,1.43,1.95c.43.54.85,1.05,1.13,1.37,1.75,2,3.54,3.93,5.3,5.89,3.71,4.14,7.39,8.31,10.84,12.68,1.59,2,3.19,4.14,4.73,6.34,1.93,1.8,3.83,3.64,5.7,5.5.1.1.18.21.27.31a11,11,0,0,1,1.88.81c10.8,6,17.89,21,15.47,32.73-.42,2-5.17,7.09-9.61,10.89a11.59,11.59,0,0,1-2.67,5.21,26.81,26.81,0,0,1-.55,4.44,11.12,11.12,0,0,1,1.09,1.93,10.57,10.57,0,0,1,3.07,3.77c.83.34,1.58.89,2.42,1.34,7.87,4.17,13.81,10.63,19.52,17.24,2.74,3.18,4.74,3.06,7.44.2,3.73-3.94,7.56-7.8,11.53-11.5,5-4.64,19.46-5,24.73-.9,23.9,18.85,47.94,37.54,73.15,54.64,4.32,2.93,6.11,6.49,6.54,11.68,1.41,16.67,3.05,33.34,5.17,49.94a30.68,30.68,0,0,1,0,8.92,74.54,74.54,0,0,1,1.4,9,4.47,4.47,0,0,1,1,2.51c1.73,10.66,3.42,21.33,5.14,32,.38,2.36-.07,4.22-2.63,5-18.87,5.6-37.84,10.79-58,14.53,0-.09.06-.17.08-.27s-.23,0-.36,0a13,13,0,0,1-2.31-.23,27.62,27.62,0,0,1-3.57.8c-.32.08-.67.11-1,.16-.13,0-.24,0-.37.06a15,15,0,0,1-5.75,2.2c-21.48,3.32-43,5.4-64.79,4.29-13.25-.67-26.26-2.75-38.51-8.22-14.27-6.39-24.88-16.08-28.5-32-1.33-5.82-1.08-11.75-.76-17.62.26-4.57-1.33-6.77-5.88-7.92a69.73,69.73,0,0,1-36.32-22c-3.7-4.24-5.38-2.88-7.2,1.56-4.94,12-9.25,24.23-11.47,37.09-7.14,41.32,10,72.48,49.19,87.66,27.77,10.78,56.91,12.41,86.34,10.92,1.58-.08,3.18-.73,4.91-.47a11.3,11.3,0,0,1,1.76-.14h8.73a25,25,0,0,1,6.06-1.3c37.45-3.74,74-12,110-22.59,10.08-3,10.08-2.9,12.7,7.74,9,36.72,20,72.81,35.83,107.25,14.43,31.47,31.22,61.36,57.64,84.8,32.34,28.67,69.82,29.69,103.26,2.29,26.24-21.5,42.85-50,57.14-80,17.84-37.41,30.3-76.76,39.54-117.11,1.49-6.5,3.78-7.68,10.07-5.78,37.09,11.21,74.76,19.83,113.45,23.39,2.35.22,4.66.48,6.9.91a10.2,10.2,0,0,1,4.66.31l2.51.78a12.33,12.33,0,0,1,9,.26c6.45,0,12.43,0,18.38,0,5,0,6.47-1.43,3.68-6.28-6.47-11.25-10-23.47-9.4-36.49.27-6.17-2.07-7.49-7.77-7.23a294.13,294.13,0,0,1-45.19-1.28A85.08,85.08,0,0,1,909.15,916a10.4,10.4,0,0,1-7.52-1.42c-.32-.22-.66-.4-1-.62a7.73,7.73,0,0,1-1.26-.22,11.42,11.42,0,0,1-2.65-.53,3.54,3.54,0,0,1,.19.33c-7.3.11-13.44-2.15-19.72-3.43-14.31-2.9-28.3-7-42.32-11-4.75-1.35-6.36-3.81-5.45-8.78,2-10.87,3.51-21.81,5.23-32.73a22.21,22.21,0,0,1,.28-2.3,13.18,13.18,0,0,1,.33-5.41,12.93,12.93,0,0,1,1.22-5.89,1.82,1.82,0,0,1,0-.33c2.27-18.25,4.51-36.49,5.56-54.86.23-4,2.31-6.89,5.72-9.2a1006.75,1006.75,0,0,0,80.64-61.07c4.76-4,7.62-3.32,11.79.77C956.72,735.5,973,752,987.61,769.88c19.66,24,37.59,49.15,45.95,79.69,1.18,4.3,3.48,4.76,7.26,4.39,16.91-1.66,32.87,1.45,47.64,10.08,1.75,1,3.56,3.62,5.52,2.22,2.31-1.64.43-4.43-.12-6.56-7.61-29.75-22.78-55.83-40.22-80.6-22.05-31.34-47.83-59.52-75.44-86.06-2.91-2.79-8.85-5.47-7.26-9.32A3.29,3.29,0,0,1,973.14,681.78ZM494,682.2a5.88,5.88,0,0,1-.73,3.74c0,3-.14,5.94-.39,9-.33,4.22.66,9.54-.5,13.63-2.18,7.72-8.24,5.47-13.25,2.45a5.38,5.38,0,0,1-3.8-1.55c-.12-.12-.21-.25-.33-.37a12,12,0,0,1-2.91-1.42c-2.54-1.74-4.58-4-7.23-5.59-2.08-1.22-4.09-2.26-5.43-4.07a24,24,0,0,1-6-3.95c-1.8-1.52-3.63-3-5.48-4.44-7-5.54-7-6.65.28-12.39,3.69-2.91,7.51-5.67,11-8.76a10.33,10.33,0,0,1,2.17-1.46,5.51,5.51,0,0,1,1.58-1.9,12.53,12.53,0,0,1,5.17-2.33c2.42-1.25,4.76-2.69,7.11-4,3.44-1.95,6.43-4.47,10.31-5.54,3.12-.85,5.82,1.07,6.87,3.9,2.6,7.06,1.09,14.58,1.13,21.9A6.44,6.44,0,0,1,494,682.2Zm17-206.08c-1.88,11.38-3.71,22.78-5.42,34.19-.28,1.84-.76,2.85-1.45,3.22a56.45,56.45,0,0,1-1.23,7.85,32.37,32.37,0,0,1,0,11.94c-2.25,14.88-3.2,30-4.49,45a10.32,10.32,0,0,1-4.55,8.28c-25.14,17.55-49.8,35.75-73.53,55.18a8.8,8.8,0,0,1-2.61,1.45c-3.33,2.55-6.69,5.35-11,5.67-5.95.44-9.3-4.07-12.91-8a15.34,15.34,0,0,1-3-2.29c-27-26.57-52.09-54.67-70.55-88-8-14.47-14.42-29.64-15.61-46.56-2.07-29.46,14.63-43.95,36.48-51.06,20.31-6.62,41.31-6.72,62.35-5.24,7,.5,14,1.77,21.08,2.17a28.72,28.72,0,0,1,9.84,2.25,13.22,13.22,0,0,1,1.4.12,45,45,0,0,0,5.8.53A11.5,11.5,0,0,1,443,453l-.07-.11c5.13,1,9.13,1.81,13.11,2.67q24.89,5.37,49.29,12.6C509.72,469.43,511.79,471.45,511,476.12ZM728.09,508c16.45-7.63,33.36-14.12,50.24-20.7,4.94-1.93,7-1.18,7.87,4.59,2.57,18.16,5.61,36.25,7.2,54.54.11,1.33,0,2.67,0,5.24C769.78,537.85,747.24,524,724,511.86,724.28,508.8,726.54,508.71,728.09,508ZM554.4,490.47c.61-4.16,2.78-5,6.46-3.55,18.66,7.13,37.29,14.29,56.89,23.75-24.19,14.17-47.82,26.76-71.28,41.64C548.11,530.75,551.42,510.63,554.4,490.47Zm.28,386.67c-3.56-19.91-6.17-39.94-8.21-61.85,15.13,8.86,28.85,17,42.66,24.94,8,4.59,16,9,24.11,13.35,3.73,2,4.12,3.7-.07,5.42-17.44,7.13-34.91,14.19-52.33,21.37C557.28,881.84,555.3,880.6,554.68,877.14ZM774.8,932.9c-10.18,41.37-22.37,82-44.12,119-9.27,15.78-20.3,30.12-36.12,40.1-7.39,4.66-15.55,6.62-24,7.55-13.64-.81-25.11-6.32-35.07-15.26-17.24-15.46-28.5-35.1-38.13-55.7-14-30-23.39-61.7-31.31-93.82-1.31-5.29-.58-7.94,5-10a981.37,981.37,0,0,0,93.85-39.61c3.77-1.84,7-1.58,10.74.18,30.7,14.58,61.87,28.07,93.88,39.53C773.43,926.27,776.1,927.63,774.8,932.9Zm13.32-70.19c-.59,4.43-1.62,8.82-2.08,13.27s-2.19,5.83-6.51,4.24c-17.72-6.49-35.13-13.74-52.46-21.19-3.36-1.44-4.11-3.08-.46-5.16q32.88-18.69,65.75-37.39c.14-.08.44.11,1.21.34C792.94,832.17,790.13,847.4,788.12,862.71ZM798.9,753.26c-.27,3.83-2.27,5.92-5.17,7.82-33.57,22-68.23,42.14-103.76,60.81a10.2,10.2,0,0,0-1.91.91c-12.42,10.46-24,7.23-37.07-.1-35-19.59-69.94-39.27-103.69-61-4-2.56-5.9-5.29-6-10.15-.4-15.34-1.91-30.66-1-47,.11-13.4.65-26.78.91-40.19-.11-1.92-.18-3.85-.21-5.78a14.45,14.45,0,0,1-1-5v-.69a13.88,13.88,0,0,1,.58-3.78c0-6.31,0-12.62,0-18.93,0-1.41.68-2.87.45-4.21-2.31-13.35,5-20.1,15.64-26.59,35.43-21.68,71.35-42.46,108.17-61.69a10.26,10.26,0,0,1,10.56,0q61.07,31.49,118.8,68.72c2.46,1.59,4.5,3.3,4.62,6.61.4,10.13,1,20.25,1.35,30.38a12.45,12.45,0,0,1-.09,3,54.35,54.35,0,0,1,.23,8.88c0,2.28-.09,4.81-.23,7.38a17.63,17.63,0,0,1,.19,2.21C800.56,694.31,801,723.8,798.9,753.26Zm86.77-58.33c-2.11,1.73-4.41,4.83-6.66,5.7a40.85,40.85,0,0,1-6.28,3.94,16,16,0,0,1-4.13,3c-1.6,2.94-4.12,5.36-7,5.9-.43.49-.88,1-1.31,1.46a5.31,5.31,0,0,1-1.56,2.13,23.88,23.88,0,0,1-3.44,2.49,5.05,5.05,0,0,1-3.21.67,5.33,5.33,0,0,1-.61.74c-1.13,1.13-2.38,2.63-4.2,2-1.64-.56-1.31-2.34-1.31-3.69q0-31.08.18-62.18a.88.88,0,0,1,.17-.43c-.09-.76-.19-1.52-.24-2.28l-.14-.56a5.64,5.64,0,0,1,.06-3.3c0-.86.05-1.72.15-2.57a2.66,2.66,0,0,1,.94-1.75c-.4-.62-.52-1.52.18-3.09q3.2,2.15,6.31,4.35a5.8,5.8,0,0,1,2.11,1.52A141.22,141.22,0,0,1,869,659.67l0,0c.14.1.29.18.43.29,1.43,1.21,2.76,2.39,4,3.61a13.65,13.65,0,0,1,4,2.95,4.51,4.51,0,0,1,.85-.18c2.4,1.84,4.88,3.6,7.21,5.55C899.42,683.58,899.45,683.65,885.67,694.93Zm52.67-45.38c-3,2.92-5.13,3.2-8.29.45-6-5.25-13.37-9.38-18.3-15.47-6.7-8.28-16.31-11.93-24.21-18.17-8.33-6.56-16.46-13.74-25.72-18.67-15.15-8.05-22.05-19.51-21.49-36.64.29-9.09-1.51-18.29-2.75-27.38a19.69,19.69,0,0,1,.06-6.29,12.61,12.61,0,0,1,0-2.88,12.59,12.59,0,0,1-1-5.19c-.09.05-.15.11-.24.15-2-12.47-3.92-24.41-5.82-36.35-2.13-13.39-2.11-13.36,11-16.94,17.31-4.72,34.62-9.39,52.28-12.57a18.08,18.08,0,0,1,9.5-2.61,10.52,10.52,0,0,1,4.22.82l.58-.22a56.24,56.24,0,0,1,12.76-2.91A8.09,8.09,0,0,1,924,449c23.65-2.33,47.24-3.72,70.58,2.76,15.91,4.42,29.89,11.6,37.28,27.68,5.28,11.5,5.07,23.34,2.36,35.28-5,21.77-15.92,40.64-28.46,58.82C986.39,601.61,962.67,625.83,938.34,649.55Z"/><path d="M743.31,246.91c24.45.09,44.53,20,44.33,43.9-.22,25.26-19.91,44.59-45.3,44.47-24.06-.11-44.06-20.26-44-44.34C698.41,266.32,718.33,246.82,743.31,246.91Z"/><path d="M273.19,782.16c.07-24.86,19.13-43.82,44-43.74,25.39.09,44.4,19,44.38,44.25s-19.23,44.22-44.5,44.11S273.11,807.58,273.19,782.16Z"/><path d="M1050,883c24.69-.06,45.06,20.06,44.92,44.35S1074.71,971.63,1050,972c-24,.37-44.4-20.28-44.37-44.88C1005.67,903.08,1025.79,883.07,1050,883Z"/><circle cx="664.41" cy="688.67" r="87.35"/></svg>