<svg id="Layer_1" data-name="Layer 1" xmlns="http://www.w3.org/2000/svg" viewBox="0 0 1344 1332"><defs><style>.cls-1{fill:#4e4e4e;}.cls-2{fill:#fefefe;}.cls-3{fill:#232323;}</style></defs><title>Artboard 7 copy 25</title><path class="cls-1" d="M1090,661a397,397,0,0,1-8.77,83.24c-.19.9-.38,1.8-.58,2.7H803.86c-14.42,0-14.42,0-14.42,14.42q0,142-.06,284.07c-.87.22-1.74.44-2.62.64a399.58,399.58,0,0,1-161,5.07v15.12c-3.16-2.71-2.64-6.43-2.65-10,0-1.88,0-3.76,0-5.64q-.08-46.23,0-92.47V760.1c0-2.52,0-5-.11-7.55-.17-3.54-2-5.33-5.52-5.5-3.15-.15-6.29-.11-9.43-.11H307.35c-.2-.89-.39-1.79-.58-2.69a399.53,399.53,0,0,1-1.14-161c.17-.9.36-1.8.54-2.7H608.65c14.43,0,14.43,0,14.43-14.43q0-146.22,0-292.44c0-.78,0-1.57-.08-2.37-.19-3.56-.41-7.2,2.71-10.08v9.6a399.58,399.58,0,0,1,161,5.07l2.65.64q.09,46.38,0,92.74,0,99.06,0,198.1c0,2.52,0,5,.11,7.55.16,3.55,2,5.33,5.51,5.5,3.15.16,6.29.12,9.44.12h277.33c.19.9.37,1.81.54,2.71A397.12,397.12,0,0,1,1090,661Z"/><path class="cls-2" d="M625.9,576.3c0,5.77-1.48,7.09-7.14,7.09q-156.57-.1-313.13-.11c.17-.9.36-1.8.54-2.7a394,394,0,0,1,14.29-51.36c.34-1,.69-1.94,1-2.91a43.77,43.77,0,0,0,7.13.51c30.6-.2,61.21-.09,91.81-.07,2.63,0,5.29-.27,6.77.12-.78-.27-2.4-1.15-4-2L340,483.32c.36-.73.73-1.46,1.1-2.18a396.29,396.29,0,0,1,44-68c.52-.64,1-1.28,1.56-1.92l174.42,87.21c3.35,1.67,6.82,3.12,9.76,5.45-2.14-1.94-1.7-4.51-1.7-6.85q-.06-106,0-212c.93-.32,1.87-.63,2.81-.93a392.55,392.55,0,0,1,51.08-12.82c-.19-3.56-.41-7.2,2.71-10.08v9.6Q625.76,423.58,625.9,576.3Z"/><path class="cls-2" d="M793.76,744.13c-5.66,0-7.15,1.32-7.14,7.08q.27,147.43.14,294.86c.88-.2,1.75-.42,2.62-.64A389.78,389.78,0,0,0,840.55,1029l2.81-1.13q0-98.35,0-196.72c0-2.48.36-5.07-1.44-7.22l-.11-.13a89.17,89.17,0,0,0,9.65,5.34q76.86,38.4,153.71,76.83c.52-.66,1.05-1.33,1.56-2a395.35,395.35,0,0,0,42.91-68.57c.35-.7.69-1.4,1-2.11l-61.32-30.66a38.94,38.94,0,0,0-4.67-2.15c2.11.5,4.64.3,7.15.3,24.27,0,48.54.14,72.8,0,.35-.92.69-1.84,1-2.77a392.88,392.88,0,0,0,15-51.08c.2-.9.39-1.8.58-2.7Q937.5,744.21,793.76,744.13Zm47.52,79.66c-.5.67-.19-.72.1-.28l.15.1C841.45,823.61,841.37,823.67,841.28,823.79Z"/><path class="cls-2" d="M1082.37,583.29q-144,0-288,.12c-6.26,0-7.81-1.37-7.8-7.74q.33-149.86.17-299.74l2.65.64A392.38,392.38,0,0,1,840.55,293c.94.37,1.87.74,2.8,1.13q0,101.43,0,202.87c0,2.41.26,5-.65,5.84,54.33-27.31,109.87-55,165.54-82.84.53.67,1,1.35,1.54,2q8.22,10.8,15.66,22.18c.48.72,1,1.44,1.41,2.17L871.14,524.2a36.89,36.89,0,0,1-6.22,2.88,40.06,40.06,0,0,1,7.69-.33c30.6,0,61.19-.12,91.79.08a42.3,42.3,0,0,0,19.85-4.67l66.49-33.27c.36.73.71,1.46,1,2.2a393.18,393.18,0,0,1,30,89.49C1082,581.48,1082.2,582.39,1082.37,583.29Z"/><path class="cls-2" d="M625.76,1051.14v15.12c-3.16-2.71-2.64-6.43-2.65-10,0-1.88,0-3.76,0-5.64A393.31,393.31,0,0,1,572,1037.84c-.94-.3-1.88-.61-2.81-.93q0-103.2,0-206.4c0-2.42-.26-5,.64-5.85-59,29.66-119.42,59.78-179.89,90l-1.6-1.92q-8.69-10.53-16.65-21.67l-1.22-1.72q85.46-42.74,170.91-85.43c2.58-1.29,5.06-2.83,7.47-3.49a39.44,39.44,0,0,1-7.51.32c-31.23,0-62.47.1-93.7-.08A40,40,0,0,0,429,805l-84.48,42.26c-.38-.7-.75-1.4-1.12-2.11a393,393,0,0,1-36-98.25c-.2-.89-.39-1.79-.58-2.69q155.69,0,311.36-.13c6.26,0,7.81,1.36,7.79,7.73Q625.59,901.5,625.76,1051.14Z"/><path class="cls-3" d="M572,500.13v5.49c-2.82.12-4.48-1.31-6.31-2.22L385.14,413.15c.52-.64,1-1.28,1.56-1.92A396.5,396.5,0,0,1,569.16,285.09c.93-.32,1.87-.63,2.81-.93Q572,392.15,572,500.13Z"/><path class="cls-3" d="M1009.78,422,847.27,503.25c-2,1-4.06,1.93-6.47,3.06-.11-2.05-.25-3.48-.25-4.92q0-104.19,0-208.38c.94.37,1.87.74,2.8,1.13A397.08,397.08,0,0,1,1008.24,420C1008.77,420.68,1009.28,421.36,1009.78,422Z"/><path class="cls-3" d="M572,826.12q0,105.86,0,211.72c-.94-.3-1.88-.61-2.81-.93A396.51,396.51,0,0,1,389.92,914.68l-1.6-1.92,176.8-88.35c2-1,3.85-2.52,6.58-2.57C571.79,823.31,572,824.72,572,826.12Z"/><path class="cls-3" d="M1006.72,904c-.51.67-1,1.34-1.56,2a397.12,397.12,0,0,1-161.8,121.9l-2.81,1.13q0-101.11,0-202.24c0-1.64.14-3.28.21-5,2.49-.19,4.16,1.27,6,2.17Z"/><path class="cls-1" d="M555.34,799.17c-1.93,1-3.86,2-5.81,3l-177.86,89-1.22-1.72a394.28,394.28,0,0,1-26-42.08c-.38-.7-.75-1.4-1.12-2.11l88.11-44.09a28.41,28.41,0,0,1,13.2-3.12c34.8.12,69.59.07,104.39.07h6C555.16,798.42,555.25,798.79,555.34,799.17Z"/><path class="cls-1" d="M1051.79,491.09l-70.55,35.29a28.23,28.23,0,0,1-13.19,3.16c-36.66-.11-73.33-.06-110.65-.06,1.55-2.83,4.1-3.24,6.09-4.23q81-40.53,162-81c.48.72,1,1.44,1.41,2.17a391.7,391.7,0,0,1,23.89,42.5C1051.1,489.62,1051.45,490.35,1051.79,491.09Z"/><path class="cls-1" d="M1065.65,798c-.34.93-.68,1.85-1,2.77q-6.27,16.62-14,32.49c-.34.71-.68,1.41-1,2.11L983.3,802.22c-1.95-1-3.89-2-6.25-3.2,2.57-1.57,4.67-.95,6.64-.95C1011,798,1038.33,798.08,1065.65,798Z"/><path class="cls-1" d="M435.43,528.46c-2.37,1.66-4.48,1-6.42,1-34.58,0-69.17,0-103.75.11a31.28,31.28,0,0,1-4.8-.33c.34-1,.69-1.94,1-2.91a390.3,390.3,0,0,1,18.51-43c.36-.73.73-1.46,1.1-2.18l88.66,44.34C431.56,526.37,433.3,527.34,435.43,528.46Z"/></svg>