<svg id="Layer_1" data-name="Layer 1" xmlns="http://www.w3.org/2000/svg" viewBox="0 0 226 213"><defs><style>.cls-1{fill:#fcb117;}</style></defs><title>Artboard 29 copy 25</title><path class="cls-1" d="M104.47,188.53c-14.94.17-28.73-4-41.63-11.25a9.2,9.2,0,0,0-8.4-.72c-7.43,2.65-15,4.95-22.48,7.36-1,.33-2.21,1.23-3.13.4s0-2.09.33-3.07c2.49-7.6,5-15.2,7.63-22.74a6.65,6.65,0,0,0-.72-6.25C27.39,138.2,21.91,123,21.89,106.37A78.43,78.43,0,0,1,38.16,57.61c17.57-23,41.11-34.24,69.92-33.18,40.49,1.49,73.69,33.42,77.78,73.91a82.17,82.17,0,0,1-70.43,89.55A98.1,98.1,0,0,1,104.47,188.53ZM74.69,63.08c-5.35-.9-9.18,1.41-11.84,5.48a29.3,29.3,0,0,0-4.7,21.3c1.58,9.75,7,17.6,12.93,25.2,13.69,17.57,30.33,30.68,52.46,36.08,8.72,2.13,16.33.17,23.34-4.66,5.55-3.82,8-9.37,6.83-16.22a3.51,3.51,0,0,0-1.9-2.93l-18.95-9a4,4,0,0,0-5.32,1.31q-2.69,3.41-5.36,6.8c-3.31,4.2-4.43,4.59-9.33,2.46C100,123.28,90.33,114.06,83,102.21a4.21,4.21,0,0,1,.43-5.49C85,95,86.43,93.11,88,91.38a6.81,6.81,0,0,0,1.27-8c-2.21-5-4.42-10-6.3-15.06C81.43,64.23,79.13,61.88,74.69,63.08Z"/></svg>